<?xml version="1.0" encoding="UTF-8" standalone="no"?>
<svg
   viewBox="0 0 56.797085 67.397247"
   version="1.1"
   id="svg195"
   sodipodi:docname="oslo_pos.svg"
   width="56.797085"
   height="67.397247"
   inkscape:version="1.3 (0e150ed6c4, 2023-07-21)"
   xmlns:inkscape="http://www.inkscape.org/namespaces/inkscape"
   xmlns:sodipodi="http://sodipodi.sourceforge.net/DTD/sodipodi-0.dtd"
   xmlns="http://www.w3.org/2000/svg"
   xmlns:svg="http://www.w3.org/2000/svg">
  <defs
     id="defs195" />
  <sodipodi:namedview
     id="namedview195"
     pagecolor="#ffffff"
     bordercolor="#000000"
     borderopacity="0.25"
     inkscape:showpageshadow="2"
     inkscape:pageopacity="0.0"
     inkscape:pagecheckerboard="0"
     inkscape:deskcolor="#d1d1d1"
     inkscape:zoom="12.197592"
     inkscape:cx="34.187076"
     inkscape:cy="26.480637"
     inkscape:window-width="1718"
     inkscape:window-height="1360"
     inkscape:window-x="-7"
     inkscape:window-y="0"
     inkscape:window-maximized="0"
     inkscape:current-layer="svg195" />
  <g
     id="g195"
     transform="translate(-0.10159184,-0.30123052)">
    <path
       d="m 32.395,0.5313 0.048,0.143 c -0.24,1.631 -0.432,3.309 -0.504,5.012 l 0.192,0.144 c 0.695,0 1.343,0.216 1.99,0.144 0.432,-1.655 0.671,-3.357 1.007,-5.036 2.326,0.408 4.628,0.839 6.738,1.822 -0.576,1.63 -1.319,3.237 -1.655,4.939 l 1.871,0.744 0.216,-0.216 2.134,-4.46 c 1.966,0.791 3.837,1.846 5.635,3.045 -1.055,1.655 -2.087,3.3087 -3.237,4.9157 -0.336,0.048 -0.599,-0.624 -0.911,-0.168 l -1.391,2.23 c 0.144,0.264 0.432,0.336 0.648,0.503 -0.216,0.456 -0.624,0.839 -0.792,1.319 l 0.096,0.168 c 9.591,6.906 14.219,18.008 11.773,29.758 -1.678,7.385 -6.57,14.507 -13.38,18.368 -5.779,3.333 -13.284,4.7 -20.166,3.165 C 16.592,65.729 10.885,62.779 6.809,57.48 1.2697,50.598 -1.4163,41.438 0.9817,32.326 c 1.727,-7.002 6.402,-13.572 12.876,-17.601 -0.144,-0.456 -0.456,-0.912 -0.647,-1.391 l 0.528,-0.36 c -0.312,-0.935 -0.911,-1.75 -1.439,-2.589 -0.264,0 -0.432,0.288 -0.743,0.288 L 8.6554,5.7333 c 1.031,-0.815 2.3023,-1.27 3.4533,-1.918 0.887,-0.312 1.727,-0.815 2.614,-1.007 l 1.871,4.772 0.168,0.072 c 0.48,-0.191 1.007,-0.312 1.439,-0.575 -0.384,-1.727 -1.079,-3.285 -1.487,-4.988 2.063,-0.647 4.221,-1.175 6.475,-1.439 0.264,1.703 0.432,3.429 0.815,5.083 l 0.096,0.096 1.727,-0.168 c 0.048,-1.75 -0.168,-3.549 -0.24,-5.275 2.276,-0.167 4.578,-0.072 6.808,0.145 z"
       id="path1" />
    <g
       fill="#c2a940"
       id="g17"
       style="fill:#ffffff;fill-opacity:1">
      <path
         d="m 31.843,0.9383 c 0,1.606 -0.264,3.069 -0.36,4.652 -1.678,0.048 -3.261,-0.216 -4.963,0 L 26.4,5.5663 c -0.12,-1.535 -0.311,-3.094 -0.288,-4.676 1.823,-0.216 3.909,-0.143 5.731,0.048 z"
         id="path2"
         style="fill:#ffffff;fill-opacity:1" />
      <path
         d="m 22.732,1.2263 c 0.384,1.487 0.48,3.069 0.743,4.604 -1.583,0.312 -3.189,0.6 -4.7,1.103 l -0.144,-0.048 c -0.48,-1.439 -0.983,-2.902 -1.319,-4.413 1.727,-0.646 3.549,-1.006 5.42,-1.246 z"
         id="path3"
         style="fill:#ffffff;fill-opacity:1" />
      <path
         d="m 41.123,2.9293 0.048,0.192 -1.463,4.292 c -1.103,-0.264 -2.23,-0.624 -3.333,-0.911 l -1.727,-0.384 c 0.072,-1.463 0.48,-2.925 0.743,-4.364 l 0.144,-0.264 c 1.992,0.168 3.766,0.815 5.588,1.439 z"
         id="path4"
         style="fill:#ffffff;fill-opacity:1" />
      <path
         d="m 14.435,3.4323 c 0.624,1.439 1.223,2.878 1.703,4.364 -1.463,0.624 -2.95,1.343 -4.364,2.11 l -0.36,-0.359 C 10.719,8.3243 9.9267,7.1493 9.3517,5.8783 10.886,4.8233 12.636,4.0083 14.435,3.4323 Z"
         id="path5"
         style="fill:#ffffff;fill-opacity:1" />
      <path
         d="m 49.372,6.9333 c 0,0.336 -0.264,0.671 -0.456,0.935 l -2.11,3.0447 c -1.343,-0.792 -2.709,-1.5347 -4.1,-2.1817 l 0.024,-0.336 1.942,-4.005 c 1.631,0.72 3.213,1.464 4.7,2.543 z"
         id="path6"
         style="fill:#ffffff;fill-opacity:1" />
      <path
         d="m 30.62,6.2623 c 0.024,0.983 -0.047,1.966 -0.191,2.925 h -2.782 l -0.12,-0.192 -0.048,-2.757 c 0.984,-0.096 2.158,-0.096 3.141,0.024 z"
         id="path7"
         style="fill:#ffffff;fill-opacity:1" />
      <path
         d="m 26.928,6.2383 c 0.144,0.959 0.096,1.894 0.144,2.901 -1.079,0.168 -2.23,0.216 -3.309,0.408 -0.24,-0.936 -0.48,-1.99 -0.456,-2.974 1.151,-0.24 2.398,-0.359 3.621,-0.335 z"
         id="path8"
         style="fill:#ffffff;fill-opacity:1" />
      <path
         d="m 35.033,6.8853 c -0.048,0.959 -0.312,1.918 -0.528,2.83 l -0.264,0.048 c -1.079,-0.216 -2.182,-0.36 -3.285,-0.479 -0.048,-0.936 0.048,-1.966 0.192,-2.902 l 0.096,-0.096 c 1.343,0.047 2.566,0.359 3.789,0.599 z"
         id="path9"
         style="fill:#ffffff;fill-opacity:1" />
      <path
         d="m 22.659,6.6933 c 0.216,0.935 0.408,1.895 0.528,2.877 -0.839,0.24 -1.75,0.4557 -2.638,0.5997 l -0.791,-2.6377 0.024,-0.216 c 0.935,-0.263 1.894,-0.479 2.877,-0.623 z"
         id="path10"
         style="fill:#ffffff;fill-opacity:1" />
      <path
         d="m 38.534,7.8203 c -0.144,0.935 -0.528,1.846 -0.863,2.7327 -0.911,-0.144 -1.822,-0.408 -2.686,-0.6947 0.12,-0.983 0.288,-1.942 0.623,-2.83 1.007,0.193 1.991,0.433 2.926,0.792 z"
         id="path11"
         style="fill:#ffffff;fill-opacity:1" />
      <path
         d="m 19.278,7.5333 c 0.312,0.911 0.528,1.846 0.743,2.7807 l -2.83,1.007 C 16.735,10.506 16.4,9.5713 16.112,8.6593 c 0.937,-0.575 2.087,-0.863 3.166,-1.126 z"
         id="path12"
         style="fill:#ffffff;fill-opacity:1" />
      <path
         d="M 42.514,9.4033 C 42.298,10.314 41.77,11.178 41.267,12.017 l -3.021,-1.175 -0.072,-0.24 c 0.335,-0.8627 0.503,-1.7737 0.935,-2.5887 1.175,0.359 2.302,0.862 3.405,1.39 z"
         id="path13"
         style="fill:#ffffff;fill-opacity:1" />
      <path
         d="m 15.562,8.8523 c 0.384,0.887 0.839,1.7737 1.055,2.7087 l -2.398,1.151 c -0.6,-0.768 -1.031,-1.678 -1.415,-2.566 0.888,-0.5267 1.799,-0.9587 2.758,-1.2937 z"
         id="path14"
         style="fill:#ffffff;fill-opacity:1" />
      <path
         d="m 44.432,14.462 c -0.024,0.311 -0.288,0.647 -0.551,0.839 -6.666,-4.292 -16.042,-5.9227 -23.979,-3.261 -1.918,0.6 -3.765,1.415 -5.515,2.398 -0.264,-0.216 -0.36,-0.551 -0.528,-0.839 6.978,-4.3397 17.481,-5.1067 25.274,-1.894 1.799,0.815 3.669,1.51 5.299,2.757 z"
         id="path15"
         style="fill:#ffffff;fill-opacity:1" />
      <path
         d="m 45.536,11.01 -0.024,0.264 c -0.455,0.743 -0.911,1.535 -1.486,2.206 l -2.158,-1.151 c 0.359,-0.888 0.767,-1.799 1.343,-2.5897 0.814,0.3587 1.581,0.7667 2.325,1.2707 z"
         id="path16"
         style="fill:#ffffff;fill-opacity:1" />
      <path
         d="m 52.825,25.685 c 4.077,6.834 4.796,17.121 1.391,24.483 C 50.547,59.375 41.123,66.282 31.268,67.097 23.882,67.72 17.24,65.61 11.581,61.558 7.0007,57.937 3.7397,52.925 1.9887,47.674 c -3.357,-10.407 -0.24,-21.677 7.53,-28.991 7.5773,-7.433 20.406,-9.5197 30.045,-5.06 5.42,2.254 10.384,6.834 13.261,12.062 z"
         id="path17"
         style="fill:#ffffff;fill-opacity:1" />
    </g>
    <path
       d="m 53.281,27.411 c 2.925,5.851 3.669,14.028 1.391,20.406 -2.182,6.69 -7.385,13.261 -13.98,16.234 -6.714,3.429 -15.946,3.765 -22.876,0.6 -3.741,-1.463 -7.409,-4.029 -10.023,-7.29 -5.3483,-6.427 -8.0093,-14.747 -6.3313,-23.38 1.535,-9.232 9.0643,-17.961 18.032,-20.91 3.98,-1.391 8.848,-1.871 13.236,-1.055 8.537,1.127 16.834,7.386 20.551,15.395 z"
       id="path18" />
    <path
       d="m 27.623,12.304 c -0.24,0.264 -1.007,-0.191 -0.863,0.384 0.072,0.384 -0.048,0.839 0.12,1.199 0.24,0.024 0.648,-0.072 0.768,0.096 -0.024,0.024 -0.048,0.072 -0.024,0.144 -0.264,0.144 -0.6,-0.096 -0.792,0.192 l 0.096,1.463 c 0.24,0.216 0.911,-0.192 0.839,0.36 -0.383,0.144 -0.839,0.048 -1.247,0.144 l -0.072,-0.144 c -0.096,-1.271 -0.264,-2.59 -0.24,-3.956 0.432,-0.12 0.983,-0.144 1.415,-0.072 z"
       fill="#c2a940"
       id="path19"
       style="fill:#ffffff;fill-opacity:1" />
    <path
       d="m 29.613,12.113 c 0.024,0.24 -0.144,0.815 0.336,0.671 0.456,-0.072 0.503,0.311 0.456,0.671 l -0.312,2.757 c -0.575,0.072 -1.199,-0.024 -1.822,-0.024 -0.048,-0.216 0.048,-0.6 -0.216,-0.719 -0.216,0.048 -0.48,0.048 -0.695,0 -0.096,-0.264 -0.072,-0.576 -0.096,-0.863 0.216,-0.24 0.887,0.167 0.792,-0.384 l -0.072,-0.719 c -0.24,-0.096 -0.696,0.144 -0.768,-0.192 v -0.527 c 0.288,-0.12 0.816,0.072 0.96,-0.288 -0.048,-0.12 -0.072,-0.335 0.024,-0.456 z"
       fill="#d0cebc"
       id="path20"
       style="fill:#ffffff;fill-opacity:1" />
    <path
       d="m 32.275,12.353 c 0.072,0.191 -0.096,0.264 -0.216,0.264 -0.192,-0.024 -0.359,-0.072 -0.551,-0.048 l -0.12,0.36 -0.335,3.381 -0.504,-0.024 0.264,-3.789 c -0.239,-0.048 -0.599,0.024 -0.695,-0.192 l 0.024,-0.168 c 0.742,0.024 1.486,0.024 2.133,0.216 z"
       fill="#c2a940"
       id="path21"
       style="fill:#ffffff;fill-opacity:1" />
    <g
       fill="#d0cebc"
       id="g23"
       style="fill:#ffffff;fill-opacity:1">
      <path
         d="m 25.681,12.208 c 0.216,1.295 0.192,2.758 0.264,4.028 -1.702,0.36 -3.453,0.648 -5.059,1.223 -0.216,-0.983 -0.911,0.168 -1.391,-0.311 0.312,-0.552 0.503,-1.247 0.288,-1.918 -0.096,-0.6 -0.719,-1.127 -1.319,-1.223 -0.024,0 -0.048,-0.024 -0.048,-0.024 2.158,-0.959 4.532,-1.463 6.954,-1.798 z"
         id="path22"
         style="fill:#ffffff;fill-opacity:1" />
      <path
         d="m 39.205,14.318 c -0.936,0.336 -1.966,1.223 -2.038,2.326 -0.072,0.527 0.143,0.936 0.264,1.367 -1.919,-0.647 -3.861,-1.343 -5.947,-1.63 -0.024,-1.127 0.24,-2.23 0.312,-3.357 0.24,-0.096 0.551,0.048 0.792,0 0.096,-0.192 0.048,-0.528 0.264,-0.6 2.229,0.36 4.387,0.935 6.353,1.894 z"
         id="path23"
         style="fill:#ffffff;fill-opacity:1" />
    </g>
    <path
       d="m 23.954,13.935 c 0.384,0.359 0.312,0.959 0.144,1.391 -0.216,0.312 -0.527,0.503 -0.887,0.551 -0.36,0.072 -0.624,-0.12 -0.887,-0.288 -0.336,-0.288 -0.384,-0.719 -0.336,-1.127 0.096,-0.432 0.504,-0.792 0.936,-0.863 0.431,-0.072 0.743,0.096 1.03,0.336 z"
       id="path24" />
    <path
       d="m 35.728,14.63 c 0.12,0.384 0.048,0.815 -0.144,1.127 -0.264,0.312 -0.624,0.479 -1.007,0.432 -0.36,-0.048 -0.744,-0.216 -0.887,-0.576 -0.144,-0.264 -0.216,-0.695 -0.048,-0.983 0.144,-0.408 0.552,-0.6 0.936,-0.695 0.503,-0.024 0.934,0.288 1.15,0.695 z"
       id="path25" />
    <g
       fill="#c2a940"
       id="g28"
       style="fill:#ffffff;fill-opacity:1">
      <path
         d="m 23.715,14.223 c 0.144,0.264 0.192,0.647 0.048,0.911 -0.191,0.336 -0.623,0.408 -0.959,0.288 -0.312,-0.144 -0.456,-0.527 -0.384,-0.815 0,-0.264 0.24,-0.528 0.479,-0.576 0.288,-0.096 0.576,0.024 0.816,0.192 z"
         id="path26"
         style="fill:#ffffff;fill-opacity:1" />
      <path
         d="m 19.302,14.894 c 0.24,0.384 0.384,0.911 0.192,1.391 -0.024,0.384 -0.552,0.647 -0.456,1.031 0.408,0.24 0.935,0.384 1.391,0.12 l 0.048,0.048 c -0.144,0.144 -0.384,0.312 -0.647,0.288 -0.408,0 -0.744,-0.216 -1.079,-0.264 -0.072,0.24 0.143,0.479 0.167,0.719 -0.191,0.024 -0.311,0.216 -0.503,0.168 -0.624,-1.199 -1.223,-2.446 -1.654,-3.693 0.695,-0.551 2.038,-0.719 2.541,0.192 z"
         id="path27"
         style="fill:#ffffff;fill-opacity:1" />
      <path
         d="m 35.273,14.559 c 0.192,0.215 0.264,0.551 0.143,0.815 -0.216,0.455 -0.791,0.599 -1.175,0.359 -0.311,-0.24 -0.384,-0.671 -0.264,-1.031 0.096,-0.191 0.288,-0.359 0.479,-0.408 0.337,-0.047 0.649,0.024 0.817,0.265 z"
         id="path28"
         style="fill:#ffffff;fill-opacity:1" />
    </g>
    <path
       d="m 18.823,14.75 c 0.335,0.288 0.432,0.671 0.456,1.103 0,0.528 -0.384,1.031 -0.863,1.223 -0.384,-0.719 -0.743,-1.511 -1.031,-2.302 0.383,-0.312 1.03,-0.407 1.438,-0.024 z"
       id="path29" />
    <path
       d="m 41.027,15.134 0.48,0.768 c -0.312,0.048 -0.432,-0.456 -0.647,-0.6 -0.48,-0.335 -1.223,-0.384 -1.727,-0.072 -0.527,0.408 -0.911,0.935 -0.983,1.535 0,0.432 -0.024,0.911 0.24,1.27 0.384,0.528 1.031,0.552 1.679,0.504 0.096,0.096 0.216,0.288 0,0.335 -0.792,0.072 -1.463,-0.168 -2.015,-0.647 -0.551,-0.408 -0.431,-1.127 -0.383,-1.727 0.096,-0.839 0.791,-1.486 1.583,-1.75 0.623,-0.144 1.294,-0.023 1.773,0.384 z"
       fill="#c2a940"
       id="path30"
       style="fill:#ffffff;fill-opacity:1" />
    <g
       fill="#d0cebc"
       id="g33"
       style="fill:#ffffff;fill-opacity:1">
      <path
         d="m 18.823,15.158 c 0.24,0.312 0.264,0.768 0.072,1.127 l -0.311,0.288 c -0.335,-0.479 -0.552,-1.055 -0.768,-1.583 -0.024,-0.144 0.144,-0.12 0.216,-0.192 0.359,-0.144 0.551,0.24 0.791,0.36 z"
         id="path31"
         style="fill:#ffffff;fill-opacity:1" />
      <path
         d="m 16.257,14.99 c 0.647,1.199 1.247,2.397 1.751,3.668 -0.359,0.072 -0.767,0.719 -1.055,0.312 -0.12,-0.12 -0.144,-0.336 -0.336,-0.36 l -0.768,0.479 c -0.167,-0.24 -0.623,-0.551 -0.383,-0.863 0.167,-0.12 0.359,-0.192 0.503,-0.335 -0.192,-0.264 -0.36,-0.552 -0.575,-0.815 -0.336,0.072 -0.864,0.647 -1.007,-0.048 -0.12,-0.624 1.391,-0.6 0.551,-1.319 0.36,-0.359 0.839,-0.575 1.319,-0.719 z"
         id="path32"
         style="fill:#ffffff;fill-opacity:1" />
      <path
         d="m 41.027,15.901 c 0.096,0.168 0.144,0.479 0.384,0.479 l 0.575,-0.192 -0.143,-0.551 c 1.103,0.527 2.134,1.318 3.165,2.038 -1.079,-0.096 -2.206,0.143 -2.733,1.199 -0.408,0.503 -0.24,1.247 -0.144,1.823 -0.768,-0.504 -1.607,-1.031 -2.254,-1.511 l 0.719,-0.096 c 0.024,-0.288 -0.024,-0.647 -0.144,-0.911 -0.456,0.048 -1.055,0.144 -1.439,-0.096 -0.311,-0.312 -0.432,-0.696 -0.456,-1.151 0.024,-0.695 0.503,-1.319 1.175,-1.558 0.552,-0.12 0.936,0.191 1.295,0.527 z"
         id="path33"
         style="fill:#ffffff;fill-opacity:1" />
    </g>
    <g
       fill="#c2a940"
       id="g35"
       style="fill:#ffffff;fill-opacity:1">
      <path
         d="m 14.579,16.165 c -0.168,0.335 -0.839,0.384 -0.72,0.791 l 0.671,0.959 c 0.288,0.096 0.671,-0.528 0.792,-0.048 -0.168,0.12 -0.359,0.191 -0.503,0.383 0.24,0.479 0.527,0.96 0.887,1.367 0.312,-0.024 0.551,-0.576 0.839,-0.264 v 0.12 l -1.127,0.719 c -0.815,-1.055 -1.631,-2.182 -2.302,-3.333 0.384,-0.36 0.839,-0.743 1.343,-0.863 z"
         id="path34"
         style="fill:#ffffff;fill-opacity:1" />
      <path
         d="m 49.228,30.312 c 2.686,5.659 2.494,13.764 -0.527,19.207 C 44.648,57.552 36.304,62.443 27.239,61.94 18.967,61.533 11.173,56.041 7.888,48.44 4.1947,40.838 5.7297,30.648 11.341,24.413 17.168,17.507 26.688,14.869 35.416,17.675 41.315,19.57 46.83,24.51 49.228,30.312 Z"
         id="path35"
         style="fill:#ffffff;fill-opacity:1" />
    </g>
    <path
       d="m 49.18,31.104 c 3.189,7.697 1.415,17.265 -4.268,23.26 -5.54,5.947 -13.764,8.68 -21.989,6.546 C 15.489,59.16 8.775,52.278 6.929,44.94 4.6027,35.924 7.9357,26.596 15.441,21.081 c 6.211,-4.844 16.522,-5.515 23.38,-1.583 4.628,2.47 8.489,6.81 10.359,11.606 z"
       id="path36" />
    <path
       d="m 12.732,17.22 c 0.768,1.103 1.607,2.182 2.23,3.333 l -1.391,1.055 -2.158,-2.518 c 0.048,-0.335 0.695,-0.456 0.528,-0.839 -0.144,-0.12 -0.36,-0.312 -0.216,-0.456 l 0.863,-0.624 z"
       fill="#d0cebc"
       id="path37"
       style="fill:#ffffff;fill-opacity:1" />
    <g
       fill="#004899"
       id="g39"
       style="fill:#ffffff;fill-opacity:1">
      <path
         d="m 27.623,17.388 c -1.559,0.312 -2.997,1.463 -3.669,2.95 -0.767,1.727 -0.479,3.885 0.648,5.371 0.432,0.456 0.815,0.936 1.319,1.247 l -0.24,0.12 -2.494,0.503 c -0.6,0.456 -0.671,1.295 -0.863,1.99 l -0.384,2.854 -0.671,1.151 -4.077,0.216 c 1.415,-1.367 2.254,-3.357 1.631,-5.395 -0.456,-1.75 -2.074,-3.003 -3.753,-3.435 -1.223,-0.192 -2.901,0.018 -4.226,1.271 0.666,-0.923 1.888,-2.176 2.608,-2.896 1.99,-1.942 4.316,-3.405 6.762,-4.364 l -1.223,2.398 c -0.792,0.288 -1.679,0.048 -2.518,0.191 -0.168,0.168 0.072,0.216 0.12,0.36 l 1.702,1.559 c -0.191,0.863 -0.647,1.727 -0.839,2.59 l 0.096,0.072 2.59,-1.223 c 0.839,0.432 1.63,1.031 2.47,1.51 l 0.048,-0.167 -0.887,-2.709 c 0.576,-0.72 1.151,-1.391 1.823,-2.063 l -0.144,-0.144 c -0.743,0.048 -1.511,0 -2.182,0.048 -0.335,-0.768 -0.647,-1.559 -0.839,-2.374 -0.048,-0.024 -0.072,-0.096 -0.144,-0.072 2.253,-0.984 4.722,-1.511 7.336,-1.559 z"
         id="path38"
         style="fill:#ffffff;fill-opacity:1" />
      <path
         d="m 47.358,28.322 c 1.99,3.381 3.021,7.218 2.997,11.366 -0.456,-0.624 -0.743,-1.583 -1.223,-2.302 -0.288,0.072 -0.24,0.432 -0.36,0.648 -1.103,-0.912 -2.134,-1.799 -3.189,-2.878 0.12,-0.791 -0.527,-1.439 -1.079,-1.846 l -0.48,-2.422 c 0.167,-0.815 0.695,-1.487 0.767,-2.326 0.048,-0.887 -0.072,-1.87 -0.767,-2.494 -0.288,-0.312 -0.983,-0.072 -1.007,-0.551 0.12,-0.408 0.671,-0.648 0.552,-1.151 -0.384,-0.216 -0.671,0.264 -1.055,0.264 -0.432,0.096 -0.839,-0.096 -1.223,-0.096 -0.144,0.12 -0.144,0.384 0,0.479 0.312,0.168 0.456,0.576 0.839,0.624 0.288,0.48 -0.624,0.624 -0.576,1.103 -0.383,-0.408 -1.175,0.408 -1.007,-0.48 0.12,-0.312 0.408,-0.624 0.216,-0.983 -0.384,-0.36 -0.503,0.359 -0.863,0.456 -0.312,0.383 -1.463,-0.072 -1.127,0.719 0.216,0.479 1.175,0.12 0.911,0.767 -0.216,0.168 -0.312,0.384 -0.384,0.6 -0.551,-0.216 -0.959,0.647 -1.343,0.143 -0.12,-0.431 0.144,-1.126 -0.432,-1.223 -0.216,0.384 -0.408,0.839 -0.839,1.007 -0.216,0.168 -0.647,0 -0.695,0.383 0.24,0.72 1.175,0.24 1.535,0.864 -0.288,0.839 0.072,1.51 0.576,2.134 0.839,0.983 2.014,1.319 3.309,1.343 0.456,0.504 0.983,0.839 1.439,1.391 -0.048,0.336 -0.48,0.408 -0.719,0.576 -2.182,-0.264 -4.652,-0.12 -6.762,-0.12 l -0.12,-0.312 c -0.24,-1.798 -0.216,-3.693 -0.6,-5.419 l -0.144,-0.288 c -1.199,-0.36 -2.326,-0.792 -3.549,-1.055 1.679,-0.935 2.59,-2.662 2.83,-4.436 0.48,0.24 0.671,0.768 1.055,1.127 l -1.199,2.35 0.048,0.096 2.829,-0.647 c 0.72,0.527 1.295,1.175 2.063,1.582 0.048,-0.719 -0.168,-1.511 -0.264,-2.254 -0.312,-0.647 0.407,-0.671 0.599,-1.079 0.456,-0.432 1.007,-0.839 1.415,-1.343 l -0.048,-0.12 -2.398,-0.096 c -0.36,-0.72 -0.576,-1.535 -0.792,-2.326 l -0.192,0.024 -1.151,2.158 c -0.624,0.192 -1.319,0.024 -1.966,0.048 -0.192,-1.535 -0.791,-2.95 -2.11,-3.957 -0.648,-0.576 -1.439,-0.744 -2.206,-0.983 7.362,0.24 14.22,4.605 17.889,10.935 z"
         id="path39"
         style="fill:#ffffff;fill-opacity:1" />
    </g>
    <path
       d="m 32.827,20.481 c 0.647,1.223 0.527,3.021 -0.12,4.22 -0.479,1.103 -1.559,1.846 -2.638,2.158 -0.048,-0.624 -0.144,-1.175 -0.024,-1.799 0.264,-0.168 0.719,-0.12 0.815,-0.503 -0.048,-1.247 -0.12,-2.494 -0.455,-3.621 -0.456,-0.671 -1.175,-1.199 -2.063,-1.127 -0.767,0.144 -1.606,0.624 -1.87,1.415 -0.312,1.055 -0.36,2.23 -0.408,3.405 0.24,0.12 0.503,0.168 0.767,0.215 0.12,0.648 0.024,1.223 -0.024,1.871 -1.703,-0.671 -2.733,-2.47 -2.757,-4.244 0.024,-1.703 0.959,-3.309 2.446,-4.101 1.319,-0.695 3.285,-0.695 4.556,0.12 0.72,0.552 1.343,1.152 1.775,1.991 z"
       fill="#c2a940"
       id="path40"
       style="fill:#ffffff;fill-opacity:1" />
    <path
       d="m 19.494,17.963 c 0,0.072 -0.12,0.12 -0.216,0.096 v -0.144 c 0.072,0.048 0.145,0.024 0.216,0.048 z"
       fill="#d0cebc"
       id="path41" />
    <g
       fill="#c2a940"
       id="g43"
       style="fill:#ffffff;fill-opacity:1">
      <path
         d="m 46.471,19.066 c 0.335,0.815 0.288,1.871 -0.312,2.542 -0.48,0.408 -1.055,0.695 -1.727,0.623 -0.863,-0.096 -1.63,-0.743 -1.966,-1.534 -0.216,-0.839 0.048,-1.775 0.743,-2.302 0.552,-0.432 1.319,-0.6 1.99,-0.384 0.552,0.216 0.96,0.552 1.272,1.055 z"
         id="path42"
         style="fill:#ffffff;fill-opacity:1" />
      <path
         d="m 11.365,18.347 c 0,0.144 -0.096,0.216 -0.24,0.24 l -0.335,0.456 2.421,2.901 -0.383,0.336 c -0.936,-0.863 -1.727,-1.871 -2.566,-2.758 -0.2643,0.144 -0.5033,0.384 -0.7193,0.6 l -0.144,-0.144 c 0.503,-0.671 1.1993,-1.271 1.8713,-1.727 z"
         id="path43"
         style="fill:#ffffff;fill-opacity:1" />
    </g>
    <path
       d="m 46.183,19.45 c 0.096,0.719 -0.312,1.247 -0.744,1.75 -0.527,0.383 -1.175,0.863 -1.822,0.456 -0.48,-0.336 -0.768,-0.768 -0.816,-1.319 0.048,-0.935 0.935,-1.727 1.727,-1.99 0.36,-0.024 0.743,-0.12 1.007,0.144 0.312,0.216 0.6,0.551 0.648,0.959 z"
       id="path44"
       style="fill:#000000;fill-opacity:1" />
    <g
       fill="#d0cebc"
       id="g46"
       style="fill:#ffffff;fill-opacity:1">
      <path
         d="m 45.487,18.827 c 0.24,0.264 0.48,0.576 0.456,0.959 -0.12,0.767 -0.839,1.487 -1.583,1.703 -0.432,0.024 -0.815,-0.144 -1.031,-0.503 -0.264,-0.48 -0.024,-1.055 0.24,-1.487 0.456,-0.552 1.199,-1.224 1.918,-0.672 z"
         id="path45"
         style="fill:#ffffff;fill-opacity:1" />
      <path
         d="m 48.917,21.464 v 0.096 l -3.045,2.566 -0.216,-0.072 -1.319,-1.487 c 0.767,0.144 1.439,-0.144 1.966,-0.647 0.647,-0.647 0.887,-1.535 0.671,-2.446 0.672,0.552 1.343,1.271 1.943,1.99 z"
         id="path46"
         style="fill:#ffffff;fill-opacity:1" />
    </g>
    <path
       d="m 21.029,21.8 h 1.727 c -0.36,0.527 -0.911,1.055 -1.343,1.607 0.096,0.671 0.335,1.367 0.48,2.038 -0.624,-0.216 -1.151,-0.791 -1.774,-1.055 l -1.942,0.959 c 0.072,-0.671 0.432,-1.319 0.576,-1.99 -0.456,-0.456 -0.983,-0.887 -1.415,-1.391 0.624,-0.144 1.271,-0.072 1.942,-0.168 0.48,-0.576 0.528,-1.319 0.983,-1.895 0.334,0.552 0.478,1.272 0.766,1.895 z"
       fill="#c2a940"
       id="path47"
       style="fill:#ffffff;fill-opacity:1" />
    <g
       fill="#d0cebc"
       id="g49"
       style="fill:#ffffff;fill-opacity:1">
      <path
         d="m 12.444,22.567 c -0.264,0.48 -0.792,0.887 -1.151,1.271 -1.079,-0.6 -2.0633,-1.703 -3.0453,-2.494 0.048,-0.384 0.408,-0.744 0.743,-0.983 0.24,-0.024 0.408,0.6 0.671,0.168 0.192,-0.168 0.4323,-0.528 0.6963,-0.312 z"
         id="path48"
         style="fill:#ffffff;fill-opacity:1" />
      <path
         d="m 30.069,21.201 c 0.336,1.007 0.312,2.086 0.336,3.189 -0.144,-0.024 -0.312,0.216 -0.408,0 l 0.096,-2.182 c -0.551,-0.624 -1.415,-0.024 -2.134,-0.288 -0.288,-0.048 -0.839,-0.192 -0.935,0.216 -0.168,0.719 -0.048,1.535 -0.12,2.278 -0.12,0.048 -0.288,0.023 -0.312,-0.12 0.192,-1.439 -0.288,-3.429 1.439,-3.98 0.767,-0.192 1.559,0.263 2.038,0.887 z"
         id="path49"
         style="fill:#ffffff;fill-opacity:1" />
    </g>
    <g
       fill="#c2a940"
       id="g52"
       style="fill:#ffffff;fill-opacity:1">
      <path
         d="m 36.999,21.248 c 0.216,0.552 0.359,1.175 0.671,1.679 0.551,-0.048 1.079,-0.048 1.606,0.072 l -1.439,1.391 0.312,2.063 c -0.551,-0.288 -1.103,-0.792 -1.607,-1.199 l -2.038,0.552 -0.072,-0.096 0.887,-1.654 -0.935,-1.151 0.12,-0.12 1.439,0.072 0.935,-1.63 z"
         id="path50"
         style="fill:#ffffff;fill-opacity:1" />
      <path
         d="m 10.838,24.126 c 0.144,0.144 0.024,0.311 -0.12,0.408 L 10.646,24.63 C 9.5907,23.79 8.5597,22.951 7.5527,22.04 c 0.072,-0.216 0.311,-0.576 0.527,-0.264 z"
         id="path51"
         style="fill:#ffffff;fill-opacity:1" />
      <path
         d="m 49.133,21.992 c 0.024,1.775 -0.192,3.645 -0.36,5.396 l 0.072,0.048 c 1.031,-0.575 2.038,-1.223 3.117,-1.702 l 0.024,0.096 c -1.103,0.768 -2.302,1.439 -3.501,2.063 -0.552,-0.6 -0.168,-1.511 -0.216,-2.302 0.096,-0.935 0.192,-1.895 0.264,-2.806 l -0.167,0.024 -2.158,1.75 -0.12,-0.12 c 1.03,-0.888 1.989,-1.656 3.045,-2.447 z"
         id="path52"
         style="fill:#ffffff;fill-opacity:1" />
    </g>
    <g
       fill="#ffedbc"
       id="g54"
       style="fill:#ffffff;fill-opacity:1">
      <path
         d="m 27.983,22.328 c 0.024,0.144 -0.156,0.084 -0.252,0.084 -0.12,0.024 -0.18,0.012 -0.252,-0.06 -0.024,-0.264 0.48,-0.24 0.504,-0.024 z"
         id="path53"
         style="fill:#ffffff;fill-opacity:1" />
      <path
         d="m 29.685,22.399 c -0.138,0.046 -0.397,0.042 -0.48,-0.024 0,-0.167 0.192,-0.167 0.312,-0.192 0.096,0.025 0.217,0.072 0.168,0.216 z"
         id="path54"
         style="fill:#ffffff;fill-opacity:1" />
    </g>
    <g
       fill="#d0cebc"
       id="g56"
       style="fill:#ffffff;fill-opacity:1">
      <path
         d="m 51.65,25.253 c -0.719,0.552 -1.559,1.007 -2.398,1.391 0.024,-1.463 0.144,-2.902 0.36,-4.292 0.815,0.887 1.511,1.87 2.038,2.901 z"
         id="path55"
         style="fill:#ffffff;fill-opacity:1" />
      <path
         d="m 10.286,25.013 -0.7913,1.199 c -1.175,-0.647 -2.302,-1.438 -3.381,-2.229 0.264,-0.576 0.695,-1.127 1.127,-1.583 1.031,0.839 2.086,1.63 3.0453,2.613 z"
         id="path56"
         style="fill:#ffffff;fill-opacity:1" />
    </g>
    <g
       fill="#ffedbc"
       id="g58"
       style="fill:#ffffff;fill-opacity:1">
      <path
         d="m 28.774,22.424 c -0.072,0.575 -0.192,1.247 -0.24,1.822 l -0.072,-0.024 c -0.048,-0.6 -0.048,-1.295 0,-1.823 z"
         id="path57"
         style="fill:#ffffff;fill-opacity:1" />
      <path
         d="m 28.031,23.143 c 0.264,0.456 -0.24,1.319 0.455,1.511 0.671,-0.144 0.312,-1.007 0.503,-1.463 l 0.648,0.048 c -0.024,0.695 0.36,1.822 -0.432,2.254 -0.384,0.288 -0.911,0.168 -1.319,0.072 -1.107,-0.319 -0.387,-1.678 -0.503,-2.445 0.216,-0.097 0.384,0.095 0.648,0.023 z"
         id="path58"
         style="fill:#ffffff;fill-opacity:1" />
    </g>
    <path
       d="m 48.053,23.67 c 0.024,1.055 -0.144,2.11 -0.216,3.166 -0.432,-0.528 -0.911,-1.223 -1.343,-1.847 v -0.168 c 0.504,-0.407 1.008,-0.863 1.559,-1.151 z"
       fill="#d0cebc"
       id="path59"
       style="fill:#fefefd;fill-opacity:1" />
    <path
       d="m 9.1347,26.572 c 0.024,0.192 -0.12,0.384 -0.24,0.528 -0.671,-0.288 -1.223,-0.911 -1.919,-1.079 l -0.048,0.096 0.887,2.566 -0.312,0.264 c -0.887,0.36 -1.798,0.624 -2.686,1.007 0.624,0.407 1.439,0.671 2.134,1.007 0.024,0.072 0,0.216 -0.12,0.192 l -3.213,-1.343 0.264,-0.216 3.357,-1.175 0.072,-0.144 c -0.431,-1.247 -1.007,-2.422 -1.294,-3.717 1.08,0.551 2.087,1.318 3.118,2.014 z"
       fill="#c2a940"
       id="path60"
       style="fill:#ffffff;fill-opacity:1" />
    <path
       d="m 6.7847,28.13 c -1.151,0.408 -2.254,0.935 -3.453,1.199 0.527,-1.607 1.318,-3.141 2.254,-4.556 0.48,1.08 0.888,2.206 1.199,3.357 z"
       fill="#d0cebc"
       id="path61"
       style="fill:#ffffff;fill-opacity:1" />
    <path
       d="m 28.966,24.965 c -0.264,0.192 -0.767,0.144 -1.055,0.024 0.24,-0.24 0.671,-0.12 1.031,-0.12 z"
       id="path62" />
    <g
       fill="#d0cebc"
       id="g64"
       style="fill:#ffffff;fill-opacity:1">
      <path
         d="m 43.066,24.941 c -0.143,0.264 -0.551,0.264 -0.479,0.623 l 0.12,0.672 c -0.144,-0.432 -0.192,-0.959 -0.72,-1.103 0.264,-0.096 0.671,-0.12 0.96,-0.264 0.047,0 0.143,0 0.119,0.072 z"
         id="path63"
         style="fill:#ffffff;fill-opacity:1" />
      <path
         d="m 17.84,27.459 c 0.888,1.367 0.864,3.405 -0.024,4.748 -0.863,1.271 -2.326,2.086 -3.933,1.966 -0.48,-0.384 -0.144,-1.415 -1.031,-1.343 -0.36,0.072 -0.647,-0.408 -1.031,-0.216 -0.192,0.216 -0.216,0.479 -0.192,0.791 -1.343,-1.079 -2.1103,-2.71 -1.7743,-4.46 0.2643,-1.606 1.7983,-3.189 3.3813,-3.501 1.846,-0.263 3.645,0.432 4.604,2.015 z"
         id="path64"
         style="fill:#ffffff;fill-opacity:1" />
    </g>
    <path
       d="m 29.566,25.781 c 0.264,0.599 -0.192,1.678 0.623,1.87 0.12,-0.048 0.216,0.072 0.336,0.072 -0.657,0.476 -1.821,0.452 -2.638,0.408 -0.167,-0.336 -0.503,-0.456 -0.839,-0.479 -0.312,0.12 -0.575,0.048 -0.815,-0.192 0.12,-0.288 0.599,-0.024 0.815,-0.216 0.336,-0.336 0.168,-0.983 0.264,-1.415 0.647,0.239 1.63,0.431 2.254,-0.048 z"
       fill="#ffedbc"
       id="path65"
       style="fill:#ffffff;fill-opacity:1" />
    <g
       fill="#d0cebc"
       id="g77"
       style="fill:#ffffff;fill-opacity:1">
      <path
         d="m 40.164,26.308 c 1.247,2.446 2.47,4.868 3.717,7.29 -0.024,0.048 -0.024,0.12 -0.096,0.12 -0.576,-0.792 -0.935,-1.798 -1.463,-2.662 l -2.302,-4.46 c -0.12,-0.192 -0.359,-0.072 -0.48,-0.216 0.216,-0.072 0.432,-0.191 0.671,-0.239 z"
         id="path66"
         style="fill:#ffffff;fill-opacity:1" />
      <path
         d="m 44.36,27.987 c 0,0.695 -0.168,1.319 -0.455,1.894 l -0.096,-0.024 c -0.191,-1.199 -0.527,-2.398 -0.599,-3.621 0.863,0.12 1.007,1.079 1.15,1.751 z"
         id="path67"
         style="fill:#ffffff;fill-opacity:1" />
      <path
         d="m 52.298,26.308 c 0.336,0.624 0.671,1.223 0.911,1.871 -0.479,-0.048 -1.079,-0.072 -1.391,0.407 -0.552,0.647 -0.456,1.631 -1.103,2.182 -0.144,0 -0.384,-0.048 -0.384,-0.24 l 0.096,-0.767 c -0.264,-0.12 -0.576,-0.24 -0.887,-0.216 l -0.072,0.216 C 49.132,29.377 48.964,28.825 48.7,28.37 c 1.031,-0.911 2.302,-1.343 3.429,-2.086 z"
         id="path68"
         style="fill:#ffffff;fill-opacity:1" />
      <path
         d="M 43.953,32.783 C 43.402,30.745 43.09,28.586 42.754,26.428 l 1.199,5.9 z"
         id="path69"
         style="fill:#ffffff;fill-opacity:1" />
      <path
         d="m 43.042,30.025 c -0.503,-0.024 -0.648,-0.624 -0.911,-0.983 -0.384,-0.744 -0.432,-1.918 0.144,-2.59 l 0.144,0.144 z"
         id="path70"
         style="fill:#ffffff;fill-opacity:1" />
      <path
         d="m 8.6317,27.531 c -0.096,0.288 -0.264,0.527 -0.432,0.767 -0.216,-0.384 -0.408,-0.839 -0.504,-1.319 0.336,0.144 0.672,0.288 0.936,0.552 z"
         id="path71"
         style="fill:#ffffff;fill-opacity:1" />
      <path
         d="m 41.435,27.435 c -0.048,0.144 -0.048,0.288 -0.12,0.408 -0.216,-0.192 -0.383,-0.503 -0.335,-0.743 0.192,0.023 0.551,0.023 0.455,0.335 z"
         id="path72"
         style="fill:#ffffff;fill-opacity:1" />
      <path
         d="m 26.4,28.011 c 0,0.384 -0.359,0.624 -0.719,0.647 -0.863,0.12 -1.751,0.288 -2.614,0.048 -0.048,-0.216 0.048,-0.456 0.168,-0.624 0.671,-0.384 1.463,-0.456 2.206,-0.624 z"
         id="path73"
         style="fill:#ffffff;fill-opacity:1" />
      <path
         d="m 41.843,30.768 c -1.031,-0.288 -2.039,-1.318 -2.134,-2.47 -0.024,-0.312 0.096,-0.576 0.288,-0.792 l 0.12,0.025 z"
         id="path74"
         style="fill:#ffffff;fill-opacity:1" />
      <path
         d="m 37.623,28.179 c 1.798,1.846 3.692,3.405 5.419,5.251 -1.919,-1.606 -3.836,-3.525 -5.659,-5.203 l -0.432,-0.048 0.528,-0.48 z"
         id="path75"
         style="fill:#ffffff;fill-opacity:1" />
      <path
         d="m 34.073,28.538 0.24,0.288 c 0.096,1.871 0.696,3.669 0.479,5.516 -1.942,0.384 -3.98,-0.048 -5.539,-1.079 -1.031,-0.96 -1.99,-2.11 -2.23,-3.453 -0.072,-0.335 0.336,-0.359 0.36,-0.647 l 0.456,-0.647 c 1.247,0.072 2.494,-0.192 3.573,-0.671 0.959,0.07 1.798,0.358 2.661,0.693 z"
         id="path76"
         style="fill:#ffffff;fill-opacity:1" />
      <path
         d="m 39.397,28.61 0.192,0.791 c -0.359,-0.216 -0.671,-0.527 -0.959,-0.863 0.048,-0.192 0.264,-0.192 0.384,-0.264 0.263,-0.12 0.359,0.168 0.383,0.336 z"
         id="path77"
         style="fill:#ffffff;fill-opacity:1" />
    </g>
    <path
       d="m 15.226,29.018 c 0.24,0.383 0.24,0.911 0.096,1.318 -0.216,0.408 -0.576,0.671 -1.007,0.768 -0.36,0 -0.888,-0.096 -1.079,-0.432 -0.312,-0.36 -0.432,-0.839 -0.288,-1.295 0.168,-0.432 0.6,-0.792 1.031,-0.863 0.48,0.024 0.959,0.12 1.247,0.504 z"
       id="path78" />
    <path
       d="m 53.856,29.401 -0.024,0.695 c -0.479,0.096 -0.168,-0.551 -0.383,-0.767 -0.168,-0.311 -0.552,-0.36 -0.888,-0.288 -0.863,0.695 -0.407,2.35 -1.798,2.494 -0.408,-0.024 -0.815,-0.24 -0.959,-0.648 L 49.78,30.048 h 0.216 c 0,0.384 0.024,0.959 0.527,1.055 0.384,0.048 0.72,-0.24 0.839,-0.552 L 52.081,28.8 c 0.144,-0.216 0.384,-0.24 0.6,-0.288 0.528,0.026 1.032,0.362 1.175,0.889 z"
       fill="#c2a940"
       id="path79"
       style="fill:#ffffff;fill-opacity:1" />
    <g
       fill="#004899"
       id="g81"
       style="fill:#ffffff;fill-opacity:1">
      <path
         d="m 11.533,34.029 c 0.311,0.552 0.815,1.415 1.583,1.439 1.463,0.168 3.093,0.24 4.58,0.384 l 3.765,0.527 c 0.144,0.911 -0.024,1.679 0.024,2.542 l -0.216,-0.096 -1.391,-1.199 c 0.048,-0.36 0.192,-0.792 -0.24,-1.031 -0.216,-0.288 -0.6,-0.168 -0.887,-0.311 -0.384,0.024 -0.696,0.336 -0.983,0.599 -0.839,0.168 -1.654,0.503 -2.254,1.127 l 0.024,0.384 c -0.767,0.479 -1.655,0.983 -2.086,1.847 0.024,0.455 0.503,0.767 0.719,1.079 0.503,-0.168 0.648,0.48 1.079,0.504 0.168,-0.264 0.048,-0.6 0,-0.887 0.383,-0.48 0.983,-0.6 1.559,-0.695 l 0.311,0.167 0.792,2.542 c -0.096,0.384 -0.552,0.408 -0.863,0.551 -0.336,0.096 -0.48,-0.264 -0.624,-0.456 0.048,-0.12 -0.048,-0.216 -0.144,-0.264 -0.144,-0.048 -0.264,0.12 -0.288,0.216 0.048,0.527 -0.144,1.151 0.144,1.535 0.887,0.576 2.062,0.168 3.021,0.024 v 0.144 C 17.264,46.02 15.202,46.955 13.26,48.13 L 13.092,48.106 C 11.749,47.051 10.598,44.533 8.6077,45.684 l -0.696,0.768 c -2.182,-5.419 -1.469,-13.009 1.433,-17.9 -0.354,2.21 0.534,4.326 2.1883,5.477 z"
         id="path80"
         style="fill:#ffffff;fill-opacity:1" />
      <path
         d="m 14.938,29.45 c 0.168,0.264 0.048,0.623 -0.096,0.863 -0.216,0.288 -0.552,0.288 -0.863,0.36 -0.288,-0.12 -0.6,-0.312 -0.671,-0.647 -0.072,-0.384 0.096,-0.815 0.503,-0.983 0.432,-0.241 0.887,0.071 1.127,0.407 z"
         id="path81"
         style="fill:#ffffff;fill-opacity:1" />
    </g>
    <path
       d="m 25.944,28.97 c 0.12,0.551 -0.599,0.551 -0.935,0.768 -0.767,0.264 -1.535,0.479 -2.35,0.647 0.024,-0.432 0.072,-0.983 0.288,-1.295 1.055,0.168 1.966,-0.096 2.997,-0.12 z"
       fill="#d0cebc"
       id="path82"
       style="fill:#ffffff;fill-opacity:1" />
    <path
       d="m 33.69,31.248 c 0.048,0.048 0.024,0.12 0.024,0.191 -1.75,-0.12 -3.357,-0.983 -4.868,-1.918 l 0.096,-0.215 c 1.535,0.767 3.045,1.582 4.748,1.942 z"
       id="path83" />
    <g
       fill="#d0cebc"
       id="g85"
       style="fill:#ffffff;fill-opacity:1">
      <path
         d="m 53.161,29.809 c -0.048,0.168 -0.168,0.432 0.12,0.48 0.264,0.072 0.599,0.311 0.815,0.12 0.143,0.336 0.311,0.719 0.311,1.127 l -0.432,0.143 c -0.096,0.336 0.192,0.576 0.144,0.936 -1.079,0.36 -2.206,0.575 -3.333,0.815 -0.24,-0.479 -0.36,-1.055 -0.552,-1.582 0.312,-0.048 0.767,0.144 1.127,-0.096 0.792,-0.576 0.743,-1.559 1.271,-2.278 0.193,-0.384 0.673,-0.024 0.529,0.335 z"
         id="path84"
         style="fill:#ffffff;fill-opacity:1" />
      <path
         d="m 7.1207,30.576 c -0.456,-0.12 -0.863,-0.311 -1.295,-0.551 0.527,-0.311 1.175,-0.479 1.774,-0.695 l 0.048,0.072 z"
         id="path85"
         style="fill:#ffffff;fill-opacity:1" />
    </g>
    <path
       d="m 33.642,30.025 c -0.791,-0.048 -1.462,-0.336 -2.23,-0.432 l -0.024,-0.216 2.278,0.479 z"
       id="path86" />
    <g
       fill="#d0cebc"
       id="g89"
       style="fill:#ffffff;fill-opacity:1">
      <path
         d="m 40.836,31.919 c -1.127,0.192 -2.206,-0.6 -2.806,-1.607 -0.144,-0.264 -0.216,-0.671 -0.048,-0.935 1.055,0.792 1.895,1.703 2.854,2.542 z"
         id="path87"
         style="fill:#ffffff;fill-opacity:1" />
      <path
         d="m 25.201,30.144 c -0.792,0.839 -1.727,1.823 -2.758,2.278 l 0.12,-1.583 c 0.815,-0.384 1.75,-0.552 2.638,-0.839 z"
         id="path88"
         style="fill:#ffffff;fill-opacity:1" />
      <path
         d="m 6.7367,31.56 c -0.096,0.432 -0.264,0.935 -0.408,1.343 -1.295,-0.24 -2.565,-0.648 -3.86,-0.983 0.048,-0.648 0.312,-1.319 0.575,-1.895 1.248,0.479 2.519,0.911 3.693,1.535 z"
         id="path89"
         style="fill:#ffffff;fill-opacity:1" />
    </g>
    <path
       d="m 32.491,33.022 c -0.024,0.048 -0.072,0.096 -0.12,0.12 -1.439,-0.719 -2.829,-1.727 -4.028,-2.853 l 0.144,-0.24 c 1.271,1.055 2.661,2.038 4.004,2.973 z"
       id="path90" />
    <g
       fill="#004899"
       id="g93"
       style="fill:#ffffff;fill-opacity:1">
      <path
         d="m 43.329,31.583 c -0.24,-0.168 -0.407,-0.503 -0.456,-0.815 0.096,-0.072 0.192,-0.048 0.288,0.048 0.049,0.24 0.241,0.48 0.168,0.767 z"
         id="path91"
         style="fill:#ffffff;fill-opacity:1" />
      <path
         d="m 41.411,31.056 c -0.12,0.048 -0.264,-0.144 -0.288,-0.24 0.096,0.072 0.336,0.048 0.288,0.24 z"
         id="path92"
         style="fill:#ffffff;fill-opacity:1" />
      <path
         d="m 42.85,32.471 v 0.024 c -0.383,-0.12 -0.648,-0.479 -0.911,-0.791 -0.048,-0.144 -0.12,-0.336 -0.048,-0.456 0.527,0.191 0.599,0.815 0.959,1.223 z"
         id="path93"
         style="fill:#ffffff;fill-opacity:1" />
    </g>
    <g
       fill="#c2a940"
       id="g95"
       style="fill:#ffffff;fill-opacity:1">
      <path
         d="m 54.6,32.015 c 0.264,0.767 0.456,1.582 0.551,2.422 -0.072,0.072 -0.24,0 -0.216,-0.12 -0.096,-0.24 -0.048,-0.576 -0.264,-0.744 -1.247,0.216 -2.47,0.576 -3.693,0.744 -0.048,-0.144 -0.12,-0.312 -0.048,-0.456 l 3.597,-0.863 c 0.096,-0.312 -0.167,-0.647 -0.12,-0.983 z"
         id="path94"
         style="fill:#ffffff;fill-opacity:1" />
      <path
         d="m 6.1857,33.43 c 0.024,0.144 -0.024,0.384 -0.168,0.36 l -3.717,-0.935 c -0.096,-0.144 -0.096,-0.36 0,-0.503 1.319,0.287 2.638,0.598 3.885,1.078 z"
         id="path95"
         style="fill:#ffffff;fill-opacity:1" />
    </g>
    <path
       d="m 12.061,33.046 c 0.12,0.432 0.072,0.935 0.36,1.295 l 0.12,-0.024 c 0,-0.384 -0.264,-0.863 -0.12,-1.247 0.264,0.384 0.072,1.031 0.527,1.295 0.072,-0.311 -0.24,-0.671 -0.096,-1.055 0.191,0.288 0.216,0.768 0.432,1.007 0.072,-0.288 -0.12,-0.647 -0.048,-0.983 0.288,0.36 0.048,1.055 0.695,1.223 2.422,-0.288 5.011,-0.528 7.529,-0.479 0.144,0.215 0.432,0.096 0.624,0.215 0.503,0.48 0.935,1.103 1.247,1.727 -2.649,0.048 -5.168,-0.625 -7.769,-0.863 -1.103,-0.144 -2.398,0.24 -3.213,-0.551 -0.264,-0.504 -0.72,-1.079 -0.408,-1.679 z"
       fill="#ffedbc"
       id="path96"
       style="fill:#ffffff;fill-opacity:1" />
    <path
       d="m 5.9697,34.269 -0.191,1.199 c -1.295,-0.024 -2.686,-0.24 -3.981,-0.48 0,-0.551 0.096,-1.199 0.288,-1.702 1.342,0.24 2.637,0.575 3.884,0.983 z"
       fill="#d0cebc"
       id="path97"
       style="fill:#ffffff;fill-opacity:1" />
    <g
       fill="#ffedbc"
       id="g99"
       style="fill:#ffffff;fill-opacity:1">
      <path
         d="m 44.528,33.861 c -0.216,0.264 -0.528,0.504 -0.887,0.6 0.096,-0.336 0.551,-0.504 0.863,-0.624 z"
         id="path98"
         style="fill:#ffffff;fill-opacity:1" />
      <path
         d="m 43.425,33.981 c -0.264,0.192 -0.24,0.479 -0.144,0.767 0.264,0.191 0.288,0.503 0.432,0.743 -2.91,0.673 -5.957,1.032 -8.92,1.462 -0.407,-0.023 -0.839,0.096 -1.127,-0.191 l -0.096,-0.24 1.559,-1.775 c 1.847,-0.216 4.029,-0.24 5.899,0.024 0.887,0.288 1.727,-0.168 2.278,-0.792 h 0.119 z"
         id="path99"
         style="fill:#ffffff;fill-opacity:1" />
    </g>
    <path
       d="m 55.247,34.94 c 0.24,0.983 0.359,2.014 0.335,3.069 l -0.264,-0.048 c -1.391,-0.743 -2.758,-1.582 -4.1,-2.47 l -0.144,-0.719 c 1.103,-0.288 2.254,-0.576 3.381,-0.744 0.192,0.288 0.096,0.696 0.336,0.983 0.144,-0.023 0.288,-0.095 0.456,-0.071 z"
       fill="#d0cebc"
       id="path100"
       style="fill:#ffffff;fill-opacity:1" />
    <g
       fill="#ffedbc"
       id="g103"
       style="fill:#ffffff;fill-opacity:1">
      <path
         d="m 44.792,34.149 c -0.096,0.383 -0.6,0.576 -1.007,0.648 L 44.6,34.149 Z"
         id="path101"
         style="fill:#ffffff;fill-opacity:1" />
      <path
         d="m 45.104,34.485 c -0.24,0.432 -0.695,0.528 -1.079,0.744 l -0.024,-0.024 c 0.288,-0.312 0.695,-0.576 1.103,-0.72 z"
         id="path102"
         style="fill:#ffffff;fill-opacity:1" />
      <path
         d="m 45.296,34.797 c 0.072,0.455 -0.503,0.527 -0.767,0.719 h -0.192 c 0.215,-0.264 0.599,-0.528 0.959,-0.719 z"
         id="path103"
         style="fill:#ffffff;fill-opacity:1" />
    </g>
    <path
       d="m 10.478,34.893 c 0.264,0.744 0.671,1.438 1.079,2.134 l 0.168,0.048 c 0.887,-0.072 1.751,-0.312 2.638,-0.336 -0.48,0.935 -1.175,1.847 -1.679,2.806 0.048,1.127 0.096,2.278 0.288,3.309 -0.695,-0.527 -1.487,-1.223 -2.182,-1.798 -1.0313,0.12 -1.9423,0.768 -2.9743,0.887 0.311,-0.767 0.647,-1.535 0.959,-2.302 L 8.6787,39.377 C 8.1747,38.73 7.5277,38.154 7.0717,37.483 l 2.398,-0.288 0.7683,-2.254 c 0.048,-0.048 0.145,-0.12 0.24,-0.048 z"
       id="path104" />
    <path
       d="m 5.6817,36.043 c -0.887,1.487 -2.326,2.518 -3.309,3.885 1.031,0.192 2.038,-0.024 3.069,0.096 0.072,0.024 0.048,0.096 0.048,0.168 -1.343,0 -2.781,0.096 -4.028,0.024 v -0.288 l 3.429,-3.765 -0.24,-0.168 -2.901,-0.408 c -0.048,-0.024 -0.144,-0.167 -0.024,-0.216 1.343,0.169 2.685,0.337 3.956,0.672 z"
       fill="#c2a940"
       id="path105"
       style="fill:#ffffff;fill-opacity:1" />
    <path
       d="m 48.653,38.514 c 0.264,0.096 0.335,-0.168 0.456,-0.312 0.264,0.36 0.575,0.887 0.599,1.391 -0.456,-0.12 -0.911,-0.335 -1.319,-0.575 0.096,-0.12 0.336,-0.36 0.12,-0.527 l -3.165,-2.902 c 1.127,0.886 2.254,1.989 3.309,2.925 z"
       fill="#d0cebc"
       id="path106"
       style="fill:#ffffff;fill-opacity:1" />
    <path
       d="m 11.437,37.506 2.158,-0.264 c -0.288,0.743 -0.935,1.391 -1.319,2.11 0.096,0.864 0.168,1.751 0.264,2.614 -0.647,-0.264 -1.199,-0.935 -1.75,-1.439 l -2.2783,0.887 -0.048,-0.072 0.767,-1.967 -1.343,-1.51 c 0.576,-0.216 1.319,-0.168 1.942,-0.288 0.2403,-0.6 0.3353,-1.247 0.5763,-1.847 h 0.096 z"
       fill="#c2a940"
       id="path107"
       style="fill:#ffffff;fill-opacity:1" />
    <g
       fill="#d0cebc"
       id="g110"
       style="fill:#ffffff;fill-opacity:1">
      <path
         d="m 45.104,35.804 c 0.768,1.391 1.559,2.83 2.302,4.22 0.144,-0.048 0.24,-0.143 0.384,-0.143 0.144,0.432 0.288,0.863 0.312,1.343 -0.456,-0.168 -0.815,-0.648 -1.199,-1.007 l 0.312,-0.24 C 46.472,38.61 45.609,37.268 45.033,35.805 h 0.071 z"
         id="path108"
         style="fill:#ffffff;fill-opacity:1" />
      <path
         d="m 4.1477,36.475 c -0.839,0.935 -1.751,1.871 -2.662,2.758 -0.168,-0.743 -0.048,-1.703 0,-2.518 0.048,-0.264 0,-0.599 0.168,-0.791 l 2.541,0.36 z"
         id="path109"
         style="fill:#ffffff;fill-opacity:1" />
      <path
         d="m 44.624,36.043 c 0.384,1.463 0.647,2.997 0.887,4.508 0.192,0 0.432,0.024 0.384,0.288 l -0.144,1.055 c -0.215,-0.335 -0.527,-0.719 -0.648,-1.127 0.144,0 0.312,0.024 0.336,-0.144 -0.456,-1.462 -0.624,-3.045 -0.911,-4.58 z"
         id="path110"
         style="fill:#ffffff;fill-opacity:1" />
    </g>
    <path
       d="m 44.384,37.027 0.576,3.141 c -0.144,0.192 -0.288,-0.144 -0.432,0.048 l -0.048,0.239 c 0.408,0.768 0.791,1.559 1.343,2.23 0.24,0.048 0.216,-0.216 0.288,-0.336 0.12,-0.551 -0.024,-1.271 0.36,-1.75 v -0.192 c 0.743,0.384 1.247,1.319 2.038,1.559 l 0.12,-0.144 -0.504,-2.422 2.206,0.719 c -0.048,3.669 -1.151,6.978 -2.83,9.999 -0.144,-0.527 -0.599,0 -0.887,0 -0.144,0.144 -0.336,0.216 -0.528,0.312 -0.048,-0.216 0.024,-0.552 -0.216,-0.624 -0.648,0.024 -1.199,0.336 -1.727,0.624 -2.35,-1.727 -4.892,-3.333 -7.169,-5.18 v -0.12 c 0.863,0.408 1.798,0.863 2.853,0.719 0.72,-0.479 0.552,-1.415 0.384,-2.086 -0.408,-0.264 -0.432,0.503 -0.815,0.575 -0.311,0 -0.623,-0.24 -0.791,-0.503 0.048,-0.911 0.408,-1.75 1.127,-2.302 0.503,-0.12 0.959,0.288 1.391,0.552 0.096,0.384 -0.527,0.791 -0.048,1.007 0.504,-0.072 0.768,-0.672 1.367,-0.48 0.336,-0.192 0.6,-0.503 0.696,-0.911 -0.48,-0.815 -1.247,-1.511 -1.942,-2.11 0.312,-0.911 -0.815,-1.127 -1.295,-1.51 -0.432,-0.336 -1.271,0 -1.415,-0.744 l -0.383,-0.312 c 1.966,-0.432 4.028,-0.792 6.066,-0.935 z"
       fill="#004899"
       id="path111"
       style="fill:#ffffff;fill-opacity:1" />
    <g
       fill="#c2a940"
       id="g113"
       style="fill:#ffffff;fill-opacity:1">
      <path
         d="m 55.583,38.609 c -1.271,0.983 -2.685,1.822 -4.076,2.662 0,-0.24 -0.144,-0.671 0.12,-0.815 0.264,-0.264 0.744,-0.312 0.815,-0.671 -0.408,-1.223 0.743,-3.19 -1.079,-3.477 l -0.024,-0.216 c 1.414,0.839 2.853,1.606 4.244,2.517 z"
         id="path112"
         style="fill:#ffffff;fill-opacity:1" />
      <path
         d="m 19.59,37.146 c 0.048,0.312 -0.167,0.504 -0.288,0.744 l -0.024,5.731 c -0.024,0.311 -0.311,0.503 -0.6,0.527 C 17.983,44.316 17,44.627 16.424,44.1 l 0.024,-0.12 c 0.671,-0.168 1.559,-0.048 1.871,-0.839 -0.144,-0.983 -0.576,-1.895 -0.863,-2.83 -0.192,-0.384 -0.695,-0.384 -1.079,-0.336 -0.719,0.12 -1.247,0.671 -1.871,0.983 -0.335,0.048 -0.503,-0.336 -0.647,-0.552 0.072,-0.503 0.6,-0.839 0.983,-1.103 0.335,-0.456 1.343,-0.456 1.103,-1.199 0.503,-0.527 1.223,-0.744 1.918,-0.792 l 0.384,0.36 c 0.383,-0.216 -0.216,-0.887 0.431,-1.031 0.361,0.002 0.721,0.17 0.912,0.505 z"
         id="path113"
         style="fill:#ffffff;fill-opacity:1" />
    </g>
    <path
       d="m 51.986,37.194 0.024,2.59 c -0.168,0.048 -0.264,0.288 -0.48,0.263 l -0.12,-3.189 c 0.192,0.097 0.456,0.12 0.576,0.336 z"
       fill="#d0cebc"
       id="path114"
       style="fill:#ffffff;fill-opacity:1" />
    <g
       fill="#004899"
       id="g116"
       style="fill:#ffffff;fill-opacity:1">
      <path
         d="m 47.981,38.657 c -0.287,0.192 -0.12,0.6 -0.455,0.719 -0.575,-0.719 -1.031,-1.582 -1.367,-2.469 0.599,0.575 1.319,1.127 1.822,1.75 z"
         id="path115"
         style="fill:#ffffff;fill-opacity:1" />
      <path
         d="m 46.59,39.736 c -0.192,0.192 -0.551,0.144 -0.791,0.36 l -0.144,-0.192 c -0.192,-0.935 -0.432,-1.895 -0.456,-2.877 0.504,0.863 0.912,1.798 1.391,2.709 z"
         id="path116"
         style="fill:#ffffff;fill-opacity:1" />
    </g>
    <path
       d="m 5.4667,39.592 c -0.695,0.192 -1.583,0.12 -2.302,0.048 0.719,-0.959 1.559,-1.847 2.374,-2.566 z"
       fill="#d0cebc"
       id="path117"
       style="fill:#ffffff;fill-opacity:1" />
    <path
       d="m 37.311,37.099 c -0.335,0.36 -0.551,0.863 -0.36,1.367 -0.719,0.432 -1.415,0.863 -2.086,1.367 -0.024,-0.815 -0.072,-1.631 0.024,-2.398 0.839,-0.025 1.582,-0.312 2.422,-0.336 z"
       fill="#004899"
       id="path118"
       style="fill:#ffffff;fill-opacity:1" />
    <path
       d="m 54.744,38.346 c -0.576,0.503 -1.295,0.935 -1.967,1.319 l -0.072,-2.494 c 0.719,0.335 1.367,0.815 2.039,1.175 z"
       id="path119" />
    <path
       d="m 38.75,38.178 0.096,0.12 0.048,-0.072 c 0.671,0.24 1.415,0.408 1.942,0.983 -0.288,0.935 0.887,0.983 1.223,1.63 0.191,0.384 0.767,0.671 0.551,1.127 l -0.408,0.36 c -0.863,-0.527 -1.678,-1.343 -2.733,-1.223 -0.647,0.863 -1.487,1.822 -1.175,2.973 0.456,0.456 1.031,0.624 1.583,0.863 0.096,0.192 -0.144,0.311 -0.24,0.456 -0.935,-0.12 -1.799,-0.408 -2.614,-0.863 l -0.072,-0.408 0.336,-5.204 c 0.096,-0.12 0.456,-0.024 0.336,-0.288 -0.216,-0.216 -0.288,-0.599 -0.168,-0.887 0.144,-0.311 0.479,-0.288 0.719,-0.143 0.288,0.144 0.192,0.576 0.576,0.576 z"
       fill="#c2a940"
       id="path120"
       style="fill:#ffffff;fill-opacity:1" />
    <path
       d="m 18.055,38.058 v 0.12 c -0.264,0.024 -0.599,-0.168 -0.887,-0.072 0.168,0.168 0.552,0.024 0.6,0.335 0.144,0.384 -0.312,0.408 -0.503,0.528 -0.264,0.12 -0.6,-0.024 -0.648,-0.312 -0.048,-0.192 0.096,-0.288 0.144,-0.432 -0.216,-0.048 -0.408,0.312 -0.647,0.096 -0.144,-0.336 0.312,-0.408 0.503,-0.504 0.479,-0.095 1.127,-0.095 1.438,0.241 z"
       id="path121" />
    <path
       d="m 54.096,38.37 c -0.216,0.312 -0.624,0.551 -1.007,0.671 -0.048,-0.432 -0.144,-0.815 -0.024,-1.247 0.359,0.144 0.743,0.288 1.031,0.576 z"
       fill="#d0cebc"
       id="path122"
       style="fill:#ffffff;fill-opacity:1" />
    <g
       fill="#c2a940"
       id="g124"
       style="fill:#ffffff;fill-opacity:1">
      <path
         d="m 20.429,38.633 c -0.288,2.686 0.264,5.779 -0.695,8.225 l -0.096,0.072 -0.096,-0.144 c -0.144,-2.997 0.096,-5.755 0.216,-8.704 0.264,0.12 0.528,0.288 0.671,0.551 z"
         id="path123"
         style="fill:#ffffff;fill-opacity:1" />
      <path
         d="m 17.264,38.585 c 0.024,0.096 -0.096,0.048 -0.12,0.144 -0.048,0 -0.072,-0.048 -0.12,-0.072 -0.047,-0.143 0.193,-0.192 0.24,-0.072 z"
         id="path124"
         style="fill:#ffffff;fill-opacity:1" />
    </g>
    <path
       d="m 40.596,39.233 c -0.12,0.168 -0.312,-0.024 -0.456,-0.048 0,0.216 0.312,0.48 0.072,0.719 -0.24,0.24 -0.695,0.12 -0.959,0.024 -0.144,-0.096 -0.36,-0.167 -0.36,-0.384 0.024,-0.216 0.312,-0.311 0.503,-0.432 -0.311,-0.216 -0.599,0.192 -0.935,0.216 -0.143,-0.24 0.192,-0.311 0.312,-0.432 0.551,-0.264 1.295,-0.192 1.774,0.168 0.049,0.049 0.121,0.121 0.049,0.169 z"
       id="path125" />
    <g
       fill="#c2a940"
       id="g127"
       style="fill:#ffffff;fill-opacity:1">
      <path
         d="m 21.508,39.736 -0.072,2.063 c -0.264,0.743 -0.528,1.486 -0.792,2.206 -0.072,-1.655 0.024,-3.333 0.144,-4.988 0.313,0.144 0.552,0.456 0.72,0.719 z"
         id="path126"
         style="fill:#ffffff;fill-opacity:1" />
      <path
         d="m 36.855,39.113 c -0.12,2.925 -0.192,5.803 -0.432,8.705 -0.192,-0.12 -0.216,-0.527 -0.312,-0.791 -0.288,-1.343 -0.096,-2.757 -0.072,-4.172 l 0.144,-3.405 c 0.217,-0.145 0.432,-0.361 0.672,-0.337 z"
         id="path127"
         style="fill:#ffffff;fill-opacity:1" />
    </g>
    <path
       d="m 55.607,39.209 c 0.12,1.511 -0.048,2.973 -0.288,4.364 -1.343,-0.096 -2.662,-0.432 -3.956,-0.72 -0.456,-1.391 1.319,-1.606 2.014,-2.326 0.743,-0.455 1.462,-0.935 2.23,-1.318 z"
       fill="#d0cebc"
       id="path128"
       style="fill:#fefefe;fill-opacity:1" />
    <g
       fill="#c2a940"
       id="g130"
       style="fill:#ffffff;fill-opacity:1">
      <path
         d="m 40.02,39.592 v 0.144 c -0.24,0.048 -0.503,0.048 -0.695,-0.12 0.024,-0.263 0.552,-0.24 0.695,-0.024 z"
         id="path129"
         style="fill:#ffffff;fill-opacity:1" />
      <path
         d="m 35.704,39.832 c 0.144,1.583 -0.024,3.237 -0.096,4.724 -0.383,-1.007 -0.623,-2.206 -0.791,-3.357 -0.072,-0.432 0.048,-0.792 0.359,-1.031 0.192,-0.096 0.312,-0.312 0.528,-0.336 z"
         id="path130"
         style="fill:#ffffff;fill-opacity:1" />
    </g>
    <path
       d="m 5.5387,41.223 c -1.128,1.175 -2.206,2.566 -3.525,3.597 -0.431,-1.295 -0.456,-2.685 -0.551,-4.076 0.408,-0.192 0.935,-0.024 1.343,-0.144 l 2.686,0.024 z"
       fill="#d0cebc"
       id="path131"
       style="fill:#ffffff;fill-opacity:1" />
    <g
       fill="#c2a940"
       id="g134"
       style="fill:#ffffff;fill-opacity:1">
      <path
         d="m 15.082,41.463 c -0.144,0.048 -0.288,-0.168 -0.336,-0.264 0.024,-0.12 0.168,-0.12 0.24,-0.144 0.096,0.096 0.024,0.264 0.096,0.408 z"
         id="path132"
         style="fill:#ffffff;fill-opacity:1" />
      <path
         d="m 5.7297,42.686 -0.815,0.863 0.624,2.734 c 0.431,0.192 0.935,0.312 1.27,0.576 v 0.12 c -1.535,-0.576 -3.165,-0.959 -4.628,-1.63 l 3.357,-3.405 c 0.192,0.142 0.12,0.502 0.192,0.742 z"
         id="path133"
         style="fill:#ffffff;fill-opacity:1" />
      <path
         d="m 41.603,42.398 c -0.048,0.096 -0.144,0.168 -0.24,0.168 l 0.12,-0.288 c 0.072,0.024 0.096,0.048 0.12,0.12 z"
         id="path134"
         style="fill:#ffffff;fill-opacity:1" />
    </g>
    <path
       d="m 46.59,42.974 0.024,2.134 c 0.863,0.24 1.726,0.456 2.589,0.695 l -0.144,0.144 c -0.815,0.288 -1.583,0.743 -2.326,1.151 -0.12,0.863 -0.168,1.918 0.024,2.757 -0.311,0.12 -0.479,-0.336 -0.743,-0.479 l -1.247,-1.271 c -1.031,0.024 -2.038,0.36 -3.046,0.479 -0.192,-0.168 0.072,-0.336 0.168,-0.456 l 1.247,-1.462 -0.768,-2.446 c 0.792,0 1.487,0.407 2.278,0.456 0.72,-0.552 1.199,-1.415 1.871,-1.966 z"
       id="path135" />
    <path
       d="m 16.593,43.621 c -0.024,0.072 -0.12,0.096 -0.216,0.072 -0.12,-0.096 -0.144,-0.288 -0.096,-0.432 z"
       fill="#c2a940"
       id="path136"
       style="fill:#ffffff;fill-opacity:1" />
    <path
       d="m 6.5927,46.163 c -0.24,0.048 -0.456,-0.048 -0.671,-0.096 -0.264,-0.792 -0.432,-1.63 -0.527,-2.446 l 0.408,-0.336 z"
       fill="#d0cebc"
       id="path137"
       style="fill:#ffffff;fill-opacity:1" />
    <g
       fill="#c2a940"
       id="g139"
       style="fill:#ffffff;fill-opacity:1">
      <path
         d="m 55.175,44.413 -4.196,3.165 v 0.096 l 2.901,1.151 v 0.072 c -1.319,-0.24 -2.565,-0.815 -3.813,-1.343 v -0.12 c 1.343,-1.199 2.854,-2.158 4.244,-3.285 L 54.287,44.077 C 53.28,43.813 52.225,43.645 51.194,43.43 l 0.072,-0.144 3.956,0.768 z"
         id="path138"
         style="fill:#ffffff;fill-opacity:1" />
      <path
         d="m 46.327,45.419 c 0.6,0.264 1.295,0.312 1.918,0.528 -0.528,0.743 -2.35,0.479 -1.895,1.918 l -0.024,1.295 -1.583,-1.463 c -0.767,0.168 -1.535,0.36 -2.326,0.432 0.288,-0.575 0.815,-0.983 1.175,-1.486 -0.192,-0.671 -0.576,-1.271 -0.671,-1.966 0.695,0.048 1.319,0.335 1.99,0.432 l 1.295,-1.487 c 0.097,0.55 0.073,1.222 0.121,1.797 z"
         id="path139"
         style="fill:#ffffff;fill-opacity:1" />
    </g>
    <path
       d="m 4.7947,44.053 0.432,2.086 -2.062,-0.695 c 0.335,-0.527 1.007,-1.127 1.438,-1.582 0.12,-0.049 0.192,0.095 0.192,0.191 z"
       id="path140" />
    <path
       d="m 53.521,44.292 c -0.983,0.887 -2.063,1.63 -3.117,2.398 l -0.048,-0.096 0.768,-2.734 c 0.838,0.073 1.629,0.217 2.397,0.432 z"
       fill="#d0cebc"
       id="path141"
       style="fill:#ffffff;fill-opacity:1" />
    <path
       d="m 40.045,44.532 h -0.192 c -0.072,-0.096 0.048,-0.192 0.12,-0.264 h 0.072 z"
       fill="#c2a940"
       id="path142"
       style="fill:#ffffff;fill-opacity:1" />
    <g
       fill="#d0cebc"
       id="g147"
       style="fill:#ffffff;fill-opacity:1">
      <path
         d="m 4.7707,45.635 c -0.36,-0.072 -0.743,-0.144 -0.983,-0.384 0.191,-0.264 0.456,-0.575 0.743,-0.695 z"
         id="path143"
         style="fill:#ffffff;fill-opacity:1" />
      <path
         d="m 55.008,45.132 c -0.144,1.151 -0.6,2.182 -0.911,3.261 -0.815,-0.096 -1.559,-0.48 -2.302,-0.792 v -0.144 c 1.054,-0.791 2.085,-1.702 3.213,-2.325 z"
         id="path144"
         style="fill:#ffffff;fill-opacity:1" />
      <path
         d="m 19.158,45.251 c 0.096,0.6 0.096,1.199 0,1.823 -0.647,0.312 -1.319,0.551 -2.11,0.575 -0.432,-0.096 -0.815,-0.311 -1.247,-0.408 1.032,-0.79 2.183,-1.39 3.357,-1.99 z"
         id="path145"
         style="fill:#ffffff;fill-opacity:1" />
      <path
         d="m 43.905,50.743 c -0.6,1.727 -2.542,2.014 -3.86,2.877 -1.007,0.695 -2.015,1.367 -2.926,2.302 L 36.687,55.898 C 32.827,54.171 27.815,53.38 23.571,54.77 21.94,54.051 20.334,53.331 18.727,52.612 18.295,52.109 18.055,51.365 17.384,51.029 l -1.391,-0.36 c -0.36,-0.312 -0.839,-0.576 -1.055,-0.936 1.223,-0.023 2.59,-0.263 3.885,-0.335 -0.216,0.335 0.168,0.624 0.456,0.743 1.63,0.552 3.405,0.815 5.155,1.103 v 0.072 c -1.079,0.768 -2.254,1.343 -3.237,2.182 l 0.096,0.12 c 1.966,-0.288 3.957,-0.767 5.947,-1.127 0.384,-0.216 0.144,-0.647 0.216,-0.959 l 1.247,-0.048 c 0.12,0.264 -0.12,0.551 0,0.839 l 6.139,2.086 c 0.144,-0.12 -0.024,-0.24 -0.096,-0.336 -0.96,-0.791 -1.823,-1.774 -2.758,-2.638 l 0.168,-0.12 c 1.654,-0.072 3.237,-0.36 4.747,-0.743 1.223,0.168 2.494,0.383 3.813,0.383 0.264,-0.072 0.575,-0.24 0.624,-0.527 0.096,-0.432 0.096,-0.983 -0.12,-1.391 -0.792,-0.791 -2.014,-0.144 -3.021,-0.432 -0.456,-0.191 -0.983,-0.215 -1.367,-0.575 0.024,-0.767 -0.096,-1.607 0.12,-2.326 2.349,1.586 4.651,3.312 6.953,5.039 z"
         id="path146"
         style="fill:#ffffff;fill-opacity:1" />
      <path
         d="m 7.0727,47.554 c 0.12,0.168 0.144,0.359 0.191,0.551 -1.199,0.6 -2.446,1.127 -3.693,1.582 -0.551,-1.223 -1.031,-2.494 -1.271,-3.813 1.632,0.48 3.239,0.984 4.773,1.68 z"
         id="path147"
         style="fill:#ffffff;fill-opacity:1" />
    </g>
    <g
       fill="#ffedbc"
       id="g149"
       style="fill:#ffffff;fill-opacity:1">
      <path
         d="m 10.694,47.098 c -0.311,0.143 -0.456,0.551 -0.216,0.839 l 0.527,0.744 -0.024,0.12 c -0.408,-0.24 -0.551,-0.768 -0.9833,-0.983 -0.216,0.096 -0.408,0.264 -0.647,0.288 -0.144,-0.432 -0.144,-1.007 0.12,-1.391 0.437,-0.195 0.8503,0.09 1.2233,0.383 z"
         id="path148"
         style="fill:#ffffff;fill-opacity:1" />
      <path
         d="M 10.646,47.673 C 10.55,47.481 10.79,47.457 10.91,47.361 h 0.048 z"
         id="path149"
         style="fill:#ffffff;fill-opacity:1" />
    </g>
    <path
       d="m 19.47,47.505 c 0,0.432 -0.168,0.839 -0.408,1.223 -1.127,0.552 -2.494,0.528 -3.813,0.576 -0.168,-0.048 -0.288,-0.12 -0.36,-0.288 0.072,-0.432 0.048,-0.983 0.479,-1.199 0.983,-0.312 1.727,0.503 2.662,0.048 0.505,-0.096 0.913,-0.455 1.44,-0.36 z"
       fill="#c2a940"
       id="path150"
       style="fill:#ffffff;fill-opacity:1" />
    <path
       d="m 12.253,48.752 c 0.072,0.384 0.048,0.815 -0.192,1.103 -0.383,0.503 -1.079,-0.024 -1.438,0.408 -0.384,-0.408 -0.6243,-0.887 -0.9123,-1.367 0.144,-0.192 0.4803,-0.216 0.6243,-0.432 0.36,0.024 0.6,1.151 1.007,0.384 -0.12,-0.24 -0.288,-0.456 -0.408,-0.696 0.503,-1.005 0.976,0.231 1.319,0.6 z"
       fill="#ffedbc"
       id="path151"
       style="fill:#ffffff;fill-opacity:1" />
    <g
       fill="#d0cebc"
       id="g153"
       style="fill:#ffffff;fill-opacity:1">
      <path
         d="m 14.698,47.841 c -0.024,0.528 -0.192,1.007 -0.168,1.535 -0.312,-0.144 -0.743,-0.575 -0.935,-0.935 0.336,-0.312 0.744,-0.408 1.103,-0.6 z"
         id="path152"
         style="fill:#ffffff;fill-opacity:1" />
      <path
         d="m 53.664,49.4 c -0.192,0.504 -0.288,1.128 -0.719,1.439 -0.671,-0.72 -0.552,0.719 -1.127,0.432 -0.911,-0.552 -1.919,-0.912 -2.758,-1.559 l 0.792,-1.751 c 1.319,0.384 2.566,0.888 3.812,1.439 z"
         id="path153"
         style="fill:#ffffff;fill-opacity:1" />
    </g>
    <path
       d="m 10.07,48.081 c -0.1233,0.103 -0.4603,0.321 -0.5753,0.288 0.144,-0.072 0.336,-0.384 0.5753,-0.288 z"
       fill="#ffedbc"
       id="path154"
       style="fill:#ffffff;fill-opacity:1" />
    <g
       fill="#c2a940"
       id="g156"
       style="fill:#ffffff;fill-opacity:1">
      <path
         d="m 6.7367,53.764 0.048,0.072 2.686,-1.678 0.096,0.12 c -1.103,0.767 -2.23,1.583 -3.405,2.206 l -0.24,-0.335 c 0.216,-1.655 0.36,-3.334 0.671,-4.964 -0.935,0.24 -1.822,0.792 -2.781,1.055 l -0.048,-0.096 0.431,-0.288 c 1.103,-0.432 2.182,-0.959 3.286,-1.319 z"
         id="path155"
         style="fill:#ffffff;fill-opacity:1" />
      <path
         d="m 36.999,48.608 c 1.007,0.552 2.278,0.504 3.453,0.408 0.432,-0.024 0.552,0.408 0.623,0.719 0,0.288 0.072,0.648 -0.24,0.744 -1.439,0.144 -2.806,0 -3.956,-0.647 -0.192,-0.383 -0.312,-0.816 -0.336,-1.271 0.192,-0.048 0.288,0.24 0.456,0.047 z"
         id="path156"
         style="fill:#ffffff;fill-opacity:1" />
    </g>
    <path
       d="m 11.701,49.088 c -0.12,0.264 -0.408,0.432 -0.648,0.503 -0.072,-0.311 0.359,-0.408 0.527,-0.6 0.097,-0.023 0.097,0.025 0.121,0.097 z"
       id="path157" />
    <path
       d="m 13.931,50.455 c 1.175,0.648 2.805,0.312 3.813,1.295 0.24,0.671 0.839,1.391 1.583,1.511 1.535,0.671 3.165,1.103 4.556,2.11 0.12,0.048 0.216,-0.048 0.192,-0.168 l -0.048,-0.192 c 2.206,-0.743 4.868,-0.792 7.242,-0.408 2.278,0.336 4.316,1.247 6.402,2.038 l 0.503,-0.072 c 1.582,-1.415 3.309,-2.542 5.275,-3.021 1.583,-0.647 1.99,-2.59 3.573,-3.165 0.264,0.192 -0.024,0.551 -0.096,0.791 -2.374,3.621 -5.611,6.426 -9.448,8.153 -3.093,0.024 -6.235,-0.191 -9.232,-0.719 -0.311,-0.048 -0.6,-0.12 -0.863,-0.288 -0.072,-0.312 -0.048,-0.696 -0.336,-0.887 l -0.12,0.144 c 0.24,0.671 0.096,1.487 -0.312,2.039 -0.048,0.072 0.048,0.096 0.072,0.144 0.432,-0.096 0.456,-0.599 0.695,-0.839 3.093,0.264 5.971,0.767 9.16,0.767 -3.717,1.559 -8.608,2.086 -12.733,0.983 -2.339,-1.785 -4.542,-3.922 -6.378,-6.187 -0.863,-0.695 -0.312,-2.086 -1.319,-2.638 -1.271,-0.624 -2.59,-1.031 -3.885,-1.559 0.024,-0.311 0.384,-0.623 0.408,-1.007 0.481,0.336 0.649,0.983 1.296,1.175 z"
       fill="#ffedbc"
       id="path158"
       style="fill:#ffffff;fill-opacity:1" />
    <g
       fill="#d0cebc"
       id="g160"
       style="fill:#ffffff;fill-opacity:1">
      <path
         d="m 9.2067,51.702 -0.072,0.191 -1.871,1.223 -0.048,-0.264 c 0.192,-1.175 0.288,-2.374 0.576,-3.525 0.504,0.744 0.912,1.608 1.415,2.375 z"
         id="path159"
         style="fill:#ffffff;fill-opacity:1" />
      <path
         d="m 6.1137,49.808 c -0.048,1.247 -0.312,2.494 -0.527,3.693 -0.671,-0.839 -1.151,-1.798 -1.559,-2.806 0.599,-0.432 1.391,-0.696 2.086,-0.887 z"
         id="path160"
         style="fill:#ffffff;fill-opacity:1" />
    </g>
    <path
       d="m 52.082,51.87 c 0.36,-0.048 0.36,-1.127 0.743,-0.551 -0.359,0.647 -0.647,1.343 -1.103,1.942 -0.072,-0.024 -0.168,-0.048 -0.168,-0.144 -0.024,-0.36 0.671,-0.767 0.12,-0.983 l -3.021,-1.606 0.144,-0.384 c 1.151,0.455 2.182,1.15 3.285,1.726 z"
       fill="#c2a940"
       id="path161"
       style="fill:#ffffff;fill-opacity:1" />
    <path
       d="m 45.608,50.431 c -0.192,1.199 -1.199,2.038 -2.182,2.686 -2.014,0.6 -3.789,1.774 -5.443,3.165 -0.168,-0.024 -0.383,0.048 -0.503,-0.096 1.501,-1.626 3.215,-2.674 5.228,-3.429 1.271,-0.551 1.319,-2.278 2.805,-2.494 z"
       fill="#ffedbc"
       id="path162"
       style="fill:#ffffff;fill-opacity:1" />
    <path
       fill="#bf8746"
       d="m 16.161,52.277 c 0.456,0.384 0.216,1.055 0.432,1.511 1.535,2.542 4.052,4.604 6.258,6.618 -4.796,-1.247 -9.232,-4.292 -12.205,-8.632 -0.072,-0.336 -0.168,-0.743 0.072,-1.055 0.528,-0.336 1.223,0 1.798,0.048 1.223,0.503 2.494,0.839 3.645,1.51 z m -5.299,-6.042 c 1.319,1.439 2.877,2.854 4.268,4.244 l -1.271,-0.36 c -1.294,-1.318 -2.278,-3.477 -4.2443,-3.813 -0.336,0.024 -0.647,0.288 -0.695,0.624 -0.264,1.439 0.839,2.494 1.4393,3.669 l -0.144,0.504 C 9.4227,49.952 8.7517,48.705 8.2487,47.41 c 0.072,-0.599 0.168,-1.295 0.792,-1.559 0.622,-0.264 1.3423,-0.048 1.8213,0.384 z m 23.02,-8.849 0.527,0.096 c -0.024,0.624 0.048,1.223 -0.048,1.774 -0.216,-0.624 -0.983,-1.007 -1.631,-1.103 -0.096,0.048 -0.216,0.12 -0.335,0.048 l -0.408,-0.479 c 0.144,-0.791 0.264,-1.607 0.575,-2.278 0.576,0.575 0.337,1.799 1.32,1.942 z M 24.77,36.355 c 0.144,0.408 0.24,0.983 0.024,1.391 -0.6,0.336 -1.343,-0.072 -1.942,0.336 -0.551,0.432 -0.791,1.031 -0.863,1.679 H 21.917 L 21.941,36.5 c 0.695,-0.192 1.727,0.503 2.11,-0.48 0.456,-0.743 0.432,-1.702 0.575,-2.565 0.216,0.862 0.048,1.965 0.144,2.9 z m 2.709,-8.081 c 0,0.384 -0.335,0.695 -0.648,0.863 -0.096,0 -0.191,0.096 -0.288,0.024 -0.072,-0.432 0.192,-0.887 0.552,-1.127 0.144,0.025 0.312,0.096 0.384,0.24 z"
       id="path163"
       style="fill:#ffffff;fill-opacity:1" />
    <path
       d="m 51.483,52.493 c -0.048,0.336 -0.456,0.576 -0.336,0.911 0.12,0.096 0.384,0.12 0.36,0.336 l -0.695,1.055 -0.192,-0.024 -3.142,-2.302 c 0.192,-0.527 0.624,-1.055 0.911,-1.583 1.103,0.36 2.062,1.08 3.094,1.607 z"
       fill="#d0cebc"
       id="path164"
       style="fill:#ffffff;fill-opacity:1" />
    <path
       fill="#d51317"
       d="m 33.426,53.453 c -1.462,-0.336 -2.781,-0.983 -4.22,-1.391 -0.12,-0.12 -0.024,-0.359 0.024,-0.503 l 0.12,-0.096 1.798,-0.072 c 0.863,0.623 1.559,1.246 2.278,2.062 z m -6.402,-1.319 c -1.462,0.24 -2.83,0.648 -4.292,0.863 0.695,-0.647 1.678,-1.08 2.494,-1.655 l 1.727,0.144 z m 4.7,-13.812 c -1.199,0.383 -1.751,2.206 -3.237,2.206 -1.391,0.096 -2.374,-1.199 -3.165,-2.206 1.007,0.887 2.158,1.367 3.525,1.343 1.102,-0.192 1.99,-0.816 2.877,-1.343 z m -5.947,1.127 c 0.767,0.768 1.606,1.703 2.877,1.511 1.894,-0.168 2.446,-2.878 4.508,-2.35 0.36,0.144 0.6,0.456 0.72,0.767 0.791,3.597 1.798,7.122 2.446,10.743 -2.614,0.792 -5.563,0.839 -8.441,0.912 -2.877,-0.12 -5.707,-0.456 -8.321,-1.271 -0.359,-0.336 0.024,-0.863 0.12,-1.247 1.103,-3.285 2.11,-6.666 3.357,-9.855 0.935,-0.937 2.062,0.094 2.734,0.79 z m 3.333,-0.288 c 0.815,-0.288 1.63,-0.6 2.326,-1.103 -0.959,0.839 -2.278,1.559 -3.741,1.199 -0.839,-0.216 -1.559,-0.743 -2.254,-1.319 1.007,0.767 2.278,1.558 3.669,1.223 z m 5.347,-4.268 c -0.24,0.384 -0.575,0.719 -0.959,0.983 L 33.139,34.94 c 0.359,-0.143 0.934,-0.071 1.318,-0.047 z m -9.951,-3.429 c 0.096,1.414 -0.288,2.757 -0.768,4.004 h -0.096 c -0.36,-0.503 -0.744,-1.079 -1.223,-1.487 0.24,-0.288 -0.143,-0.6 0.144,-0.863 0.648,-0.551 1.247,-1.151 1.943,-1.654 z m 3.429,1.127 c 1.102,1.199 2.589,1.966 4.172,2.278 0,0.911 -0.288,1.798 -0.551,2.638 -1.055,0.839 -2.278,1.439 -3.717,1.295 -0.935,-0.192 -1.822,-0.767 -2.446,-1.511 -0.24,-1.679 0.048,-3.597 -0.336,-5.179 l 0.024,-1.127 1.391,-1.151 c 0.36,0.91 0.696,1.989 1.463,2.757 z"
       id="path165"
       style="fill:#ffffff;fill-opacity:1" />
    <path
       d="m 10.814,53.98 c -0.576,-0.192 -1.1283,0.048 -1.5353,0.456 l -1.894,1.511 -0.216,-0.024 -0.719,-1.007 c 1.031,-0.839 2.23,-1.559 3.381,-2.278 0.3353,0.455 0.7193,0.839 0.9833,1.342 z"
       fill="#d0cebc"
       id="path166"
       style="fill:#ffffff;fill-opacity:1" />
    <path
       d="m 50.427,55.203 c -0.192,0.575 -0.72,1.103 -1.199,1.535 0.048,-0.432 0.456,-0.792 0.696,-1.151 l -1.127,-0.863 c -0.383,0.168 -0.527,1.007 -0.959,0.624 l 0.551,-0.839 c -0.264,-0.456 -0.815,-0.576 -1.175,-1.007 h -0.12 l -0.768,0.911 c -0.072,-0.048 -0.192,-0.024 -0.24,-0.12 0.216,-0.551 0.719,-0.983 1.031,-1.462 1.176,0.717 2.207,1.533 3.31,2.372 z"
       fill="#c2a940"
       id="path167"
       style="fill:#ffffff;fill-opacity:1" />
    <path
       d="m 47.838,54.627 -0.503,0.744 0.719,0.623 c 0.312,-0.168 0.432,-0.504 0.719,-0.767 0.24,0.072 0.455,0.24 0.647,0.408 -0.168,0.407 -0.551,0.791 -0.767,1.127 l 0.311,0.336 c -0.311,0.551 -0.695,0.863 -1.151,1.343 -1.103,-0.935 -1.966,-1.846 -2.854,-2.925 0.168,-0.312 0.503,-0.624 0.791,-0.911 l 0.552,0.312 0.815,-0.935 c 0.265,0.142 0.744,0.309 0.721,0.645 z"
       fill="#d0cebc"
       id="path168"
       style="fill:#ffffff;fill-opacity:1" />
    <path
       d="m 12.061,55.467 c 0.695,1.559 -1.511,2.422 -2.2063,3.573 -0.168,-0.096 -0.336,-0.288 -0.456,-0.432 L 11.629,56.21 c 0.12,-0.335 0.024,-0.719 -0.144,-1.007 -0.215,-0.312 -0.527,-0.576 -0.911,-0.6 l -0.7193,0.12 c -0.767,0.504 -1.415,1.127 -2.158,1.727 -0.096,0.048 -0.12,-0.072 -0.192,-0.12 l 0.024,-0.12 c 1.223,-0.551 2.062,-2.518 3.5973,-1.75 0.383,0.191 0.767,0.599 0.935,1.007 z"
       fill="#c2a940"
       id="path169"
       style="fill:#ffffff;fill-opacity:1" />
    <g
       fill="#d0cebc"
       id="g171"
       style="fill:#ffffff;fill-opacity:1">
      <path
         d="m 11.27,55.61 -0.048,0.552 c -0.503,0.671 -1.2953,1.439 -1.9663,2.063 -0.456,-0.408 -0.959,-0.912 -1.318,-1.439 0.623,-0.695 1.415,-1.271 2.1823,-1.871 0.502,-0.192 1.006,0.24 1.15,0.695 z"
         id="path170"
         style="fill:#ffffff;fill-opacity:1" />
      <path
         d="m 19.47,60.478 c -0.048,0.192 -0.456,-0.024 -0.6,0.168 -0.887,0.528 -1.535,1.439 -1.391,2.542 0.096,0.384 0.288,0.719 0.48,1.079 -2.782,-1.127 -5.491,-2.614 -7.697,-4.82 0.575,-1.343 2.542,-1.99 2.254,-3.597 2.135,1.871 4.437,3.549 6.954,4.628 z"
         id="path171"
         style="fill:#ffffff;fill-opacity:1" />
    </g>
    <path
       d="m 47.478,58.751 c -0.456,0.528 -0.983,1.295 -1.846,1.151 -0.479,-0.048 -0.983,-0.335 -1.175,-0.815 -0.24,-0.479 -0.192,-1.127 -0.024,-1.63 -0.455,-0.312 -0.935,-0.024 -1.391,-0.024 -0.096,-0.048 -0.072,-0.168 -0.024,-0.216 0.432,-0.312 1.103,-0.36 1.606,-0.168 0.072,0 0.144,-0.048 0.168,-0.12 -0.12,-0.311 -0.695,-0.575 -0.432,-0.911 0.168,-0.359 0.384,-0.048 0.552,0.072 z"
       fill="#c2a940"
       id="path172"
       style="fill:#ffffff;fill-opacity:1" />
    <path
       d="m 44.025,56.594 v 0.072 l -0.288,0.048 c -0.072,-0.096 0.048,-0.12 0.12,-0.216 0.072,-0.024 0.12,0.048 0.168,0.096 z"
       fill="#d0cebc"
       id="path173" />
    <path
       d="m 46.806,59.087 c -0.12,0.264 -0.456,0.408 -0.719,0.552 -0.384,-0.048 -0.887,-0.048 -1.199,-0.384 -0.264,-0.384 -0.456,-0.887 -0.288,-1.367 0.072,-0.264 0.288,-0.479 0.503,-0.647 0.576,0.527 1.176,1.223 1.703,1.846 z"
       id="path174" />
    <g
       fill="#d0cebc"
       id="g176"
       style="fill:#ffffff;fill-opacity:1">
      <path
         d="m 43.09,57.936 c 0.24,-0.192 0.552,-0.312 0.863,-0.216 0.048,0.695 0,1.463 0.504,1.966 0.312,0.335 0.767,0.503 1.223,0.576 l -0.024,0.144 c -2.638,2.11 -5.491,3.717 -8.608,4.7 0.503,-0.671 0.599,-1.775 0.216,-2.566 -0.264,-0.6 -0.887,-1.103 -1.511,-1.271 0.647,-0.335 1.463,-0.551 2.158,-0.911 1.607,-0.767 3.189,-1.654 4.652,-2.782 0.215,0.025 0.359,0.265 0.527,0.36 z"
         id="path175"
         style="fill:#ffffff;fill-opacity:1" />
      <path
         d="m 46.351,59.16 c -0.288,0.143 -0.767,0.168 -1.055,0 -0.335,-0.216 -0.479,-0.576 -0.432,-0.96 -0.048,-0.168 0.048,-0.359 0.192,-0.456 0.48,0.337 1.007,0.864 1.295,1.416 z"
         id="path176"
         style="fill:#ffffff;fill-opacity:1" />
    </g>
    <path
       d="m 15.37,58.824 c 0.336,0.384 0.528,0.815 0.48,1.367 -0.024,0.48 -0.335,0.936 -0.743,1.175 -0.408,0.192 -1.007,0.264 -1.414,0.048 -0.432,-0.264 -0.912,-0.648 -0.96,-1.175 -0.024,-0.503 0,-0.983 0.36,-1.343 0.502,-0.72 1.678,-0.648 2.277,-0.072 z"
       id="path177" />
    <path
       d="m 15.226,59.016 c 0.335,0.335 0.551,0.815 0.359,1.319 -0.072,0.384 -0.384,0.671 -0.719,0.887 -0.528,0.192 -1.127,0.048 -1.511,-0.384 -0.288,-0.311 -0.384,-0.695 -0.384,-1.103 0.024,-0.432 0.384,-0.791 0.72,-0.983 0.48,-0.312 1.151,-0.096 1.535,0.264 z"
       fill="#c2a940"
       id="path178"
       style="fill:#ffffff;fill-opacity:1" />
    <path
       d="m 15.226,59.543 c 0.143,0.312 0.072,0.72 -0.072,0.983 -0.191,0.335 -0.551,0.552 -0.983,0.503 -0.36,-0.048 -0.671,-0.359 -0.863,-0.671 -0.12,-0.408 -0.024,-0.911 0.288,-1.175 0.503,-0.455 1.367,-0.191 1.63,0.36 z"
       id="path179" />
    <path
       d="m 14.986,59.687 c 0.096,0.432 -0.12,0.815 -0.48,0.983 -0.383,0.12 -0.767,-0.048 -0.935,-0.408 -0.12,-0.288 -0.048,-0.624 0.144,-0.863 0.336,-0.336 1.08,-0.239 1.271,0.288 z"
       fill="#d0cebc"
       id="path180"
       style="fill:#ffffff;fill-opacity:1" />
    <path
       d="m 42.226,59.927 c 0.36,0.408 0.528,0.863 0.48,1.438 -0.12,0.528 -0.528,1.056 -1.055,1.271 -0.624,0.264 -1.319,0.048 -1.798,-0.383 -0.312,-0.312 -0.456,-0.695 -0.456,-1.151 0,-0.456 0.168,-0.839 0.48,-1.175 0.623,-0.576 1.75,-0.672 2.349,0 z"
       id="path181" />
    <path
       d="m 42.035,60.046 c 0.312,0.312 0.48,0.744 0.432,1.175 -0.048,0.384 -0.216,0.695 -0.48,0.983 -0.503,0.455 -1.247,0.239 -1.798,0.048 -0.36,-0.288 -0.48,-0.672 -0.551,-1.079 0,-0.456 0.216,-0.959 0.551,-1.223 0.503,-0.431 1.366,-0.287 1.846,0.096 z"
       fill="#c2a940"
       id="path182"
       style="fill:#ffffff;fill-opacity:1" />
    <path
       d="m 42.035,60.694 c 0.12,0.335 0.072,0.719 -0.144,0.983 -0.288,0.384 -0.911,0.528 -1.343,0.288 -0.36,-0.168 -0.479,-0.527 -0.528,-0.863 -0.024,-0.479 0.264,-0.767 0.624,-0.983 0.528,-0.192 1.175,0.047 1.391,0.575 z"
       id="path183" />
    <path
       d="m 41.795,60.814 c 0.096,0.336 -0.024,0.647 -0.215,0.863 -0.288,0.192 -0.671,0.264 -0.983,0.072 -0.24,-0.24 -0.408,-0.6 -0.264,-0.936 0.096,-0.312 0.384,-0.456 0.695,-0.503 0.335,-0.023 0.647,0.216 0.767,0.504 z"
       fill="#d0cebc"
       id="path184"
       style="fill:#ffffff;fill-opacity:1" />
    <path
       d="m 21.7,61.558 c 0.384,0.456 0.647,0.959 0.647,1.559 -0.048,0.599 -0.36,1.103 -0.767,1.51 -0.599,0.384 -1.486,0.576 -2.182,0.288 -0.768,-0.264 -1.343,-1.079 -1.439,-1.823 -0.096,-0.815 0.24,-1.606 1.007,-2.014 0.84,-0.48 2.063,-0.288 2.734,0.48 z"
       fill="#c2a940"
       id="path185"
       style="fill:#ffffff;fill-opacity:1" />
    <path
       d="m 21.508,61.965 c 0.336,0.792 0.192,1.798 -0.432,2.446 -0.432,0.431 -1.175,0.456 -1.727,0.215 -0.432,-0.288 -0.623,-0.671 -0.719,-1.127 -0.048,-0.575 0.024,-1.175 0.408,-1.606 0.6,-0.719 2.087,-1.127 2.47,0.072 z"
       id="path186" />
    <g
       fill="#d0cebc"
       id="g188"
       style="fill:#ffffff;fill-opacity:1">
      <path
         d="m 21.269,62.061 c 0.288,0.575 0.096,1.294 -0.192,1.798 -0.36,0.432 -0.863,0.767 -1.439,0.576 -0.336,-0.048 -0.48,-0.432 -0.6,-0.72 -0.072,-0.839 0.144,-1.727 0.935,-2.158 0.48,-0.215 1.08,-0.023 1.296,0.504 z"
         id="path187"
         style="fill:#ffffff;fill-opacity:1" />
      <path
         d="m 24.458,61.989 c -0.24,0.384 -0.527,0.792 -0.407,1.223 0.12,0.887 0.887,1.415 1.247,2.206 0,0.12 -0.12,0.24 -0.24,0.24 -0.288,0.048 -0.455,-0.216 -0.671,-0.311 -0.216,0.192 -0.576,0.336 -0.576,0.647 -0.911,-0.096 -1.822,-0.312 -2.686,-0.6 v -0.096 c 0.863,-0.359 1.751,-1.103 1.679,-2.158 -0.048,-0.6 -0.288,-1.103 -0.527,-1.631 z"
         id="path188"
         style="fill:#ffffff;fill-opacity:1" />
    </g>
    <path
       d="m 36.831,62.66 c 0.24,0.839 0.336,1.918 -0.432,2.542 -0.551,0.623 -1.487,0.695 -2.254,0.479 -0.6,-0.144 -1.103,-0.767 -1.367,-1.294 -0.216,-0.504 -0.216,-1.08 0,-1.583 0.36,-0.791 1.199,-1.175 2.039,-1.247 0.839,0.024 1.607,0.336 2.014,1.103 z"
       fill="#c2a940"
       id="path189"
       style="fill:#ffffff;fill-opacity:1" />
    <path
       d="m 32.923,61.965 c -0.527,0.744 -0.959,1.871 -0.408,2.758 0.24,0.527 0.744,0.959 1.199,1.223 -0.815,0.264 -1.799,0.336 -2.71,0.36 -0.024,-0.144 -0.024,-0.312 -0.072,-0.456 -0.359,-0.072 -0.863,0.024 -1.247,-0.072 -0.072,-1.103 -0.216,-2.326 -0.072,-3.381 0.935,-0.216 2.062,-0.096 2.974,-0.456 0.12,0 0.24,-0.024 0.336,0.024 z"
       fill="#d0cebc"
       id="path190"
       style="fill:#ffffff;fill-opacity:1" />
    <path
       d="m 35.656,62.277 c 0.623,0.647 0.72,1.751 0.36,2.542 -0.192,0.432 -0.647,0.504 -1.031,0.671 -0.456,-0.024 -0.863,-0.264 -1.175,-0.575 -0.408,-0.456 -0.527,-1.079 -0.456,-1.679 0.024,-0.456 0.24,-0.863 0.624,-1.127 0.527,-0.288 1.198,-0.096 1.678,0.168 z"
       id="path191" />
    <path
       d="m 26.089,62.612 c 0.024,0.096 -0.024,0.168 -0.12,0.192 -0.24,-0.096 -0.479,-0.383 -0.791,-0.24 -0.744,1.175 1.295,1.703 1.199,2.854 -0.048,0.312 -0.072,0.671 -0.432,0.815 -0.407,0.216 -0.935,0.072 -1.343,-0.072 -0.096,-0.12 -0.288,-0.192 -0.264,-0.36 0.336,-0.072 0.719,0.36 1.103,0.072 0.743,-0.839 -0.624,-1.391 -0.863,-2.11 -0.264,-0.456 -0.24,-1.031 0.048,-1.438 0.264,-0.288 0.72,-0.216 1.031,-0.096 0.192,0.072 0.264,0.24 0.432,0.383 z"
       fill="#c2a940"
       id="path192"
       style="fill:#ffffff;fill-opacity:1" />
    <g
       fill="#d0cebc"
       id="g194"
       style="fill:#ffffff;fill-opacity:1">
      <path
         d="m 35.608,62.756 c 0.384,0.551 0.48,1.439 0.096,2.038 -0.192,0.264 -0.456,0.408 -0.768,0.432 -0.551,-0.048 -0.863,-0.6 -1.103,-1.007 -0.216,-0.456 -0.24,-1.079 0,-1.535 0.144,-0.311 0.48,-0.407 0.768,-0.479 0.408,0.048 0.767,0.191 1.007,0.551 z"
         id="path193"
         style="fill:#ffffff;fill-opacity:1" />
      <path
         d="m 28.175,62.373 c 0.144,1.319 0.048,2.685 0.072,4.029 L 26.4,66.354 c 0.384,-0.311 0.408,-0.887 0.288,-1.343 -0.288,-0.743 -1.223,-1.223 -1.319,-2.038 0.288,-0.24 0.456,0.192 0.695,0.216 0.168,-0.168 0.384,-0.288 0.551,-0.432 l -0.312,-0.48 z"
         id="path194"
         style="fill:#ffffff;fill-opacity:1" />
    </g>
    <path
       d="m 29.062,62.373 c 0.168,1.175 0.144,2.59 0.168,3.789 0.36,0.144 0.936,0 1.319,0.12 l -0.024,0.096 -1.727,0.048 -0.12,-0.168 c 0,-1.295 -0.12,-2.638 0,-3.885 0.144,0.048 0.264,-0.096 0.384,0 z"
       fill="#c2a940"
       id="path195"
       style="fill:#ffffff;fill-opacity:1" />
  </g>
</svg>
