<?xml version="1.0" encoding="UTF-8" standalone="no"?>
<!-- Created with Inkscape (http://www.inkscape.org/) -->

<svg
   version="1.1"
   id="svg1"
   width="324.3075"
   height="324.18723"
   viewBox="0 0 324.3075 324.18723"
   sodipodi:docname="shinshu.svg"
   inkscape:version="1.3 (0e150ed6c4, 2023-07-21)"
   xmlns:inkscape="http://www.inkscape.org/namespaces/inkscape"
   xmlns:sodipodi="http://sodipodi.sourceforge.net/DTD/sodipodi-0.dtd"
   xmlns="http://www.w3.org/2000/svg"
   xmlns:svg="http://www.w3.org/2000/svg">
  <defs
     id="defs1" />
  <sodipodi:namedview
     id="namedview1"
     pagecolor="#ffffff"
     bordercolor="#000000"
     borderopacity="0.25"
     inkscape:showpageshadow="2"
     inkscape:pageopacity="0.0"
     inkscape:pagecheckerboard="0"
     inkscape:deskcolor="#d1d1d1"
     inkscape:zoom="1.6588725"
     inkscape:cx="122.67368"
     inkscape:cy="57.870632"
     inkscape:window-width="1718"
     inkscape:window-height="1360"
     inkscape:window-x="0"
     inkscape:window-y="0"
     inkscape:window-maximized="0"
     inkscape:current-layer="g1" />
  <g
     inkscape:groupmode="layer"
     inkscape:label="Image"
     id="g1"
     transform="translate(-75.662954,-89.617932)">
    <g
       id="g115"
       style="fill:#ffffff;fill-opacity:1">
      <path
         style="font-variation-settings:normal;opacity:1;vector-effect:none;fill:#ffffff;fill-opacity:1;stroke-width:0.602819;stroke-linecap:butt;stroke-linejoin:miter;stroke-miterlimit:4;stroke-dasharray:none;stroke-dashoffset:0;stroke-opacity:1;-inkscape-stroke:none;stop-color:#000000;stop-opacity:1"
         d="m 92.062582,206.64578 c -6.765185,-9.53516 -7.123535,-22.47272 -0.961403,-34.7096 5.199037,-10.32433 17.167871,-22.56409 29.764051,-30.43777 3.89477,-2.43456 10.48634,-5.6585 15.67329,-7.66581 9.2877,-3.59427 15.16659,-7.29557 16.26096,-10.23776 1.15529,-3.10597 -1.93207,-6.60465 -5.70308,-6.46288 -2.83424,0.10655 -5.54115,2.23447 -8.78843,6.90866 -1.43555,2.06637 -2.89561,3.95054 -3.24456,4.18706 -0.91829,0.62241 -1.44818,-1.15212 -1.49661,-5.01193 -0.13391,-10.67018 8.7413,-21.50195 19.88917,-24.273804 14.56191,-3.620738 25.49247,3.250144 26.33855,16.556254 0.34606,5.44251 -0.42108,7.47392 -4.5616,12.07918 -2.36546,2.63095 -11.69605,10.56298 -15.5442,13.21426 -0.69518,0.47896 -3.05006,2.45203 -5.23305,4.38459 -14.04079,12.42998 -26.82651,27.63797 -40.71082,48.42354 l -4.85688,7.27102 -3.02097,-0.29028 c -1.66153,-0.15965 -3.65394,-0.13141 -4.42757,0.0628 -1.736328,0.43579 -4.650884,3.11181 -5.995693,5.50498 -1.350995,2.40419 -1.964349,2.49444 -3.381155,0.49753 z"
         id="path87" />
      <path
         style="font-variation-settings:normal;opacity:1;vector-effect:none;fill:#ffffff;fill-opacity:1;stroke-width:0.602819;stroke-linecap:butt;stroke-linejoin:miter;stroke-miterlimit:4;stroke-dasharray:none;stroke-dashoffset:0;stroke-opacity:1;-inkscape-stroke:none;stop-color:#000000;stop-opacity:1"
         d="m 181.44228,125.1967 c 0.37326,-1.48717 6.89221,-11.07487 9.91295,-14.5794 6.6308,-7.69275 15.88647,-15.168026 22.04272,-17.802652 1.32621,-0.56756 2.86502,-1.259275 3.41959,-1.537145 2.13741,-1.070954 11.02137,-1.955503 14.06217,-1.400127 2.83471,0.517738 3.02545,0.668469 3.2049,2.532707 0.40277,4.184249 -2.9573,10.391657 -8.40806,15.533097 -4.77767,4.50654 -8.61198,6.81414 -19.51242,11.74316 -3.73657,1.68962 -15.93362,5.1884 -24.01684,6.88934 -0.93128,0.19597 -1.04464,-0.0258 -0.70501,-1.37898 z"
         id="path88" />
      <path
         style="font-variation-settings:normal;opacity:1;vector-effect:none;fill:#ffffff;fill-opacity:1;stroke-width:0.602819;stroke-linecap:butt;stroke-linejoin:miter;stroke-miterlimit:4;stroke-dasharray:none;stroke-dashoffset:0;stroke-opacity:1;-inkscape-stroke:none;stop-color:#000000;stop-opacity:1"
         d="m 125.98919,221.18278 c -3.57954,-0.84677 -4.46152,-1.15455 -7.68595,-2.68207 -1.48145,-0.70182 -1.66056,-1.11108 -1.68421,-3.84828 -0.0145,-1.68461 -0.41737,-4.14801 -0.89515,-5.47421 -1.76127,-4.88886 -1.03886,-7.62715 4.77101,-18.08457 9.56962,-17.22472 34.30339,-43.68956 50.72884,-54.27927 13.84204,-8.92414 25.03147,-11.30933 33.42086,-7.12415 3.26168,1.62714 8.34041,6.80154 9.99488,10.18317 1.41671,2.89563 1.57161,3.82394 1.37704,8.25264 -0.17834,4.0594 -0.57421,5.74167 -2.1227,9.02049 -2.6385,5.58682 -8.29655,11.16476 -14.14483,13.94456 -4.49841,2.13817 -11.05499,3.939 -11.76314,3.23086 -0.21322,-0.21323 1.61951,-2.49474 4.07275,-5.07002 7.85341,-8.24409 9.74899,-14.2594 5.80973,-18.43624 -2.1153,-2.24286 -5.36409,-3.47127 -7.89897,-2.98669 -3.13471,0.59923 -6.74581,4.65112 -9.95918,11.17481 -4.20995,8.54694 -5.54808,12.79323 -11.63225,36.91239 -3.43274,13.60824 -11.65815,22.14111 -24.39117,25.30289 -4.54933,1.12967 -13.14193,1.11232 -17.99756,-0.0363 z"
         id="path89" />
      <path
         style="font-variation-settings:normal;opacity:1;vector-effect:none;fill:#ffffff;fill-opacity:1;stroke-width:0.602819;stroke-linecap:butt;stroke-linejoin:miter;stroke-miterlimit:4;stroke-dasharray:none;stroke-dashoffset:0;stroke-opacity:1;-inkscape-stroke:none;stop-color:#000000;stop-opacity:1"
         d="m 100.16786,224.37405 c -0.517946,-1.09148 -1.220395,-3.19381 -1.561002,-4.67185 -0.805986,-3.49751 -0.823969,-12.38572 -0.02807,-13.87287 1.508412,-2.8185 6.463742,-3.75432 10.765512,-2.0331 4.2333,1.69383 4.6932,5.46899 1.47118,12.07638 -1.78109,3.65248 -7.60404,10.48595 -8.9353,10.48595 -0.42384,0 -1.19438,-0.89303 -1.71232,-1.98451 z"
         id="path90" />
      <path
         style="font-variation-settings:normal;opacity:1;vector-effect:none;fill:#ffffff;fill-opacity:1;stroke-width:0.602819;stroke-linecap:butt;stroke-linejoin:miter;stroke-miterlimit:4;stroke-dasharray:none;stroke-dashoffset:0;stroke-opacity:1;-inkscape-stroke:none;stop-color:#000000;stop-opacity:1"
         d="m 99.085748,265.08776 c -4.88347,-5.31095 -11.734452,-10.61603 -16.803794,-13.01208 -2.515048,-1.18875 -4.591998,-5.19983 -5.449462,-10.52419 -0.611203,-3.79522 -0.05515,-8.63502 1.033797,-8.998 0.378539,-0.12618 1.699919,0.65883 2.936401,1.74448 l 2.248149,1.9739 -0.358458,-2.09326 c -1.306031,-7.62676 -1.602829,-10.96105 -1.256858,-14.11976 0.413343,-3.7738 2.223194,-8.77076 3.176688,-8.77076 0.870374,0 4.152238,3.97125 7.161054,8.66531 3.58958,5.60011 6.323416,11.62773 7.758089,17.1052 0.330309,1.2611 1.287696,0.84294 1.683846,-0.73544 0.46313,-1.84526 4.66429,-6.34768 5.92295,-6.34768 0.99084,0 1.11954,0.31609 2.91518,7.15946 1.88413,7.18062 1.43845,19.2467 -0.82102,22.22797 -0.3141,0.41444 -1.0563,0.75352 -1.64933,0.75352 -1.32402,0 -4.19951,3.30002 -4.19951,4.8195 0,1.46633 -0.61547,3.01715 -1.19742,3.01715 -0.25608,0 -1.65122,-1.28939 -3.100302,-2.86532 z"
         id="path91" />
      <path
         style="font-variation-settings:normal;opacity:1;vector-effect:none;fill:#ffffff;fill-opacity:1;stroke-width:0.602819;stroke-linecap:butt;stroke-linejoin:miter;stroke-miterlimit:4;stroke-dasharray:none;stroke-dashoffset:0;stroke-opacity:1;-inkscape-stroke:none;stop-color:#000000;stop-opacity:1"
         d="m 121.26711,277.79913 c -0.22104,-0.22104 -0.40482,-1.50956 -0.40841,-2.86339 -0.009,-3.27603 -1.4669,-7.92412 -3.40456,-10.85213 -1.52674,-2.30706 -1.56237,-2.57114 -1.16868,-8.66064 0.48639,-7.52321 1.7264,-13.22415 3.76499,-17.30943 1.78552,-3.57817 4.25661,-6.3296 5.68466,-6.3296 1.37186,0 3.03078,4.14164 3.50111,8.74087 l 0.36988,3.61692 1.80846,-3.60141 c 2.27581,-4.5321 8.15676,-10.59814 11.85361,-12.22665 1.54622,-0.68113 3.98764,-1.33186 5.42537,-1.44606 2.43606,-0.1935 2.60353,-0.11111 2.45959,1.21003 -0.085,0.77971 -0.96658,3.17224 -1.95917,5.31672 -0.99258,2.14449 -1.80469,3.98971 -1.80469,4.10051 0,0.11079 -0.94944,1.88117 -2.10987,3.93417 -2.39127,4.23058 -2.54757,4.75801 -1.05494,3.55964 3.45515,-2.77396 9.71265,-5.47488 13.47454,-5.816 4.22119,-0.38276 4.33277,-0.11502 1.90678,4.57561 -3.98761,7.70999 -10.30211,13.56807 -16.97467,15.74771 -7.59571,2.48119 -12.92639,6.81397 -17.96379,14.601 -2.82062,4.36024 -2.78303,4.31931 -3.40021,3.70213 z"
         id="path92" />
      <path
         style="font-variation-settings:normal;opacity:1;vector-effect:none;fill:#ffffff;fill-opacity:1;stroke-width:0.602819;stroke-linecap:butt;stroke-linejoin:miter;stroke-miterlimit:4;stroke-dasharray:none;stroke-dashoffset:0;stroke-opacity:1;-inkscape-stroke:none;stop-color:#000000;stop-opacity:1"
         d="m 120.48861,313.20729 c -6.39148,-4.27893 -5.86397,-4.0898 -19.81782,-7.10542 -6.129518,-1.32467 -13.674823,-5.15467 -16.517766,-8.38442 -4.613395,-5.2411 -8.467447,-15.89953 -5.749214,-15.89953 2.012995,0 7.362782,3.12708 10.813414,6.32071 3.722071,3.44485 7.345579,5.73567 9.072403,5.73567 0.550625,0 -0.432332,-1.10551 -2.236557,-2.5154 -14.215171,-11.10829 -20.414361,-21.30317 -20.390045,-33.53245 0.01167,-5.86801 0.440721,-6.66512 2.778329,-5.16171 4.179135,2.68778 11.976153,9.05237 16.134041,13.16998 4.830793,4.78399 7.708015,9.782 9.721635,16.88743 0.56376,1.9893 1.40437,4.43072 1.86803,5.42537 l 0.84301,1.80846 -0.22552,-2.41128 c -0.12404,-1.3262 -0.66831,-3.9843 -1.20948,-5.9069 -1.16745,-4.1475 -1.24595,-8.25574 -0.22117,-11.57485 0.93334,-3.02294 3.48707,-7.53524 4.26457,-7.53524 1.32212,0 4.44844,3.05579 5.93897,5.805 2.45322,4.52481 3.50133,10.91874 3.50133,21.3596 0,8.60324 0.0895,9.30905 1.54881,12.21448 1.71017,3.40486 6.24104,9.96815 7.74041,11.21251 1.25598,1.04238 1.21704,2.42889 -0.0962,3.42579 -0.58021,0.44045 -1.19057,0.78899 -1.35634,0.77453 -0.16578,-0.0145 -3.04794,-1.865 -6.40481,-4.11233 z"
         id="path93" />
      <path
         style="font-variation-settings:normal;opacity:1;vector-effect:none;fill:#ffffff;fill-opacity:1;stroke-width:0.602819;stroke-linecap:butt;stroke-linejoin:miter;stroke-miterlimit:4;stroke-dasharray:none;stroke-dashoffset:0;stroke-opacity:1;-inkscape-stroke:none;stop-color:#000000;stop-opacity:1"
         d="m 136.84658,319.19964 c -0.94929,-0.99084 -2.16136,-1.93971 -2.69349,-2.1086 -0.53214,-0.1689 -1.33848,-1.59618 -1.79187,-3.17174 -1.32203,-4.59417 -2.84644,-7.13293 -5.67448,-9.4503 -1.99714,-1.6365 -2.88843,-2.94368 -3.63203,-5.32676 -1.44061,-4.61691 -1.83403,-9.98356 -1.05839,-14.43759 0.81708,-4.69203 1.96713,-7.15041 4.55624,-9.73952 1.98516,-1.98515 6.77548,-3.87966 7.55886,-2.98943 0.24128,0.27419 0.0838,2.80431 -0.35002,5.62249 -0.89837,5.83644 -1.0627,13.18284 -0.32103,14.35229 0.33461,0.5276 0.95779,-0.57041 1.88172,-3.31551 4.07678,-12.11261 10.96821,-22.10664 17.61924,-25.55163 2.35544,-1.22003 4.41627,-1.49571 4.93285,-0.65987 0.44596,0.72158 -1.20489,10.39375 -2.35359,13.78944 -0.53813,1.59078 -1.74793,4.31648 -2.68844,6.05712 -0.9405,1.74064 -1.59175,3.1648 -1.44722,3.1648 0.14454,0 1.21059,-0.39601 2.369,-0.88003 6.92616,-2.89393 14.9848,-3.41682 19.85797,-1.28849 l 2.41127,1.05311 -3.2013,2.96389 c -3.46877,3.21151 -10.77437,7.06301 -14.4181,7.60119 -3.74011,0.55242 -10.66553,4.18701 -13.8514,7.2695 -1.63284,1.57985 -3.73226,4.43919 -4.66538,6.35408 -1.52167,3.1227 -1.66677,3.94615 -1.40742,7.98736 0.15904,2.47814 0.24502,4.50572 0.19107,4.50572 -0.054,0 -0.87478,-0.81068 -1.82406,-1.80152 z"
         id="path94" />
      <path
         style="font-variation-settings:normal;opacity:1;vector-effect:none;fill:#ffffff;fill-opacity:1;stroke-width:0.602819;stroke-linecap:butt;stroke-linejoin:miter;stroke-miterlimit:4;stroke-dasharray:none;stroke-dashoffset:0;stroke-opacity:1;-inkscape-stroke:none;stop-color:#000000;stop-opacity:1"
         d="m 155.82873,280.94927 c 0,-0.47776 0.2504,-1.02341 0.55644,-1.21255 0.30604,-0.18915 0.73521,-1.22241 0.95371,-2.29615 1.28172,-6.29866 2.65986,-7.99889 7.79232,-9.61352 3.66892,-1.15421 9.349,-2.07719 10.06395,-1.63533 1.11966,0.69199 -0.92339,5.43639 -4.22526,9.81192 -2.7649,3.66397 -2.83485,3.70875 -6.40631,4.10134 -1.98599,0.21831 -4.55853,0.69303 -5.71677,1.05493 -2.72629,0.85186 -3.01808,0.8315 -3.01808,-0.21064 z"
         id="path95" />
      <path
         style="font-variation-settings:normal;opacity:1;vector-effect:none;fill:#ffffff;fill-opacity:1;stroke-width:0.602819;stroke-linecap:butt;stroke-linejoin:miter;stroke-miterlimit:4;stroke-dasharray:none;stroke-dashoffset:0;stroke-opacity:1;-inkscape-stroke:none;stop-color:#000000;stop-opacity:1"
         d="m 194.86578,404.57737 c -7.3479,-7.12141 -9.32762,-9.35963 -8.77101,-9.91623 1.20991,-1.20992 2.54425,-0.82418 6.25709,1.80887 1.96038,1.39026 3.69998,2.68492 3.86575,2.87703 0.16578,0.1921 2.03782,1.62429 4.16011,3.18262 l 3.8587,2.83334 3.67654,-2.11427 c 3.50436,-2.01526 15.97582,-8.1994 20.0773,-9.95561 l 1.93311,-0.82773 -4.64579,-1.41334 c -10.4115,-3.16738 -20.75783,-5.76734 -26.76658,-6.72624 -2.21991,-0.35427 -4.46504,-0.80868 -4.98917,-1.0098 -0.65032,-0.24956 -2.63073,1.23612 -6.23601,4.67817 -6.58966,6.29131 -9.99146,8.10422 -17.46303,9.30651 -7.13974,1.14891 -8.09054,0.60861 -4.43513,-2.52028 1.4053,-1.20289 2.44536,-2.29681 2.31123,-2.43094 -0.13413,-0.13413 -1.43562,0.43738 -2.89221,1.27003 -3.9839,2.27734 -9.37927,2.15119 -13.68858,-0.32005 -1.76197,-1.01043 -3.09624,-2.16078 -2.96503,-2.55633 0.13121,-0.39555 1.30155,-0.86967 2.60077,-1.0536 1.96658,-0.27843 5.07458,-1.47101 5.07501,-1.94735 6e-5,-0.0712 -2.91608,-0.1295 -6.48031,-0.1295 -5.10328,0 -6.99283,-0.2422 -8.89169,-1.1397 -4.82652,-2.28125 -7.17068,-4.58708 -4.66334,-4.58708 2.43478,0 7.77382,-2.49417 9.63659,-4.5018 1.07754,-1.16133 1.95917,-2.38676 1.95917,-2.72318 0,-0.38245 -2.99312,-0.61501 -7.98736,-0.62058 -10.35514,-0.0115 -14.98011,-1.01093 -23.33891,-5.04315 -5.59116,-2.69713 -12.29707,-9.52375 -15.17507,-15.44823 -2.697231,-5.55235 -3.156943,-7.01787 -2.356568,-7.51253 0.668777,-0.41333 8.228738,4.2391 9.597768,5.9065 0.86435,1.05273 2.48817,1.3779 2.48817,0.49826 0,-0.72797 -1.77065,-2.19316 -4.22226,-3.49385 -5.50739,-2.92192 -10.211752,-7.29806 -13.689056,-12.73396 -2.096756,-3.27776 -3.277723,-7.37556 -2.1256,-7.37556 1.11732,0 10.133096,5.33712 13.717266,8.12028 1.93396,1.50175 3.67726,2.73046 3.87401,2.73046 0.19674,0 -2.51918,-2.91614 -6.03538,-6.4803 -9.588527,-9.71932 -16.503105,-19.98355 -17.676836,-26.24008 -0.414914,-2.21168 -0.393601,-2.24312 1.520344,-2.24312 2.382587,0 9.821326,2.5168 13.660112,4.62172 6.41652,3.51838 12.21627,8.65357 16.81188,14.88551 2.8177,3.82097 3.32858,3.37946 1.37181,-1.18551 -0.83473,-1.94734 -1.17559,-3.86255 -1.05493,-5.92746 0.25666,-4.39256 1.7186,-4.40663 5.83314,-0.0561 3.73748,3.95184 6.399,9.43593 7.03109,14.48768 0.39367,3.14625 0.53298,3.43643 1.07129,2.23154 0.61883,-1.38511 -0.0468,-6.39769 -1.55975,-11.74567 -0.93179,-3.29372 -0.077,-3.84793 3.40814,-2.20972 4.80769,2.25988 9.59054,8.95595 10.95728,15.34038 0.28391,1.3262 0.52693,5.40489 0.54005,9.06376 0.0194,5.41908 0.22986,6.9678 1.13492,8.3532 1.5249,2.33422 2.15257,1.41229 2.43671,-3.57906 0.13127,-2.30604 0.551,-5.34914 0.93274,-6.76245 0.62323,-2.30742 0.81643,-2.50415 1.89331,-1.92782 2.02912,1.08595 4.54938,5.15143 5.66479,9.13796 1.17914,4.21431 2.33904,6.15908 5.98891,10.04145 2.32233,2.47026 8.34223,7.32096 9.08558,7.32096 0.18652,0 1.35099,0.63107 2.58772,1.40239 2.47301,1.54235 10.35335,4.92651 14.60638,6.27262 1.49198,0.47222 7.45989,2.06713 13.26202,3.54424 5.80214,1.47711 11.36314,2.93721 12.35779,3.24466 9.04716,2.79647 17.69845,5.57246 18.68739,5.99634 4.91771,2.10777 4.58894,2.12674 13.08139,-0.75444 11.68879,-3.96558 16.72777,-5.47139 25.49904,-7.61993 22.50461,-5.51256 33.92043,-10.69077 42.57421,-19.31162 3.45749,-3.44434 5.95272,-7.4597 5.95272,-9.5792 0,-2.9732 4.30836,-9.7191 6.20722,-9.7191 1.14415,0 2.23225,4.38565 2.23225,8.99722 0,2.3065 0.23184,4.33693 0.51519,4.51205 0.28336,0.17513 1.16498,-0.37381 1.95916,-1.21987 1.37534,-1.46516 1.43682,-1.87529 1.29357,-8.6288 -0.12304,-5.80073 0.0694,-7.72928 1.05774,-10.60206 2.25749,-6.56152 5.53948,-10.8007 10.47932,-13.53561 3.21915,-1.78227 3.75397,-1.07563 2.81295,3.71662 -1.02585,5.22425 -1.4599,11.89282 -0.70043,10.76109 0.3231,-0.48147 0.7675,-2.24472 0.98755,-3.91832 0.22005,-1.67361 1.21408,-4.71691 2.20896,-6.76288 1.96072,-4.03224 7.30185,-9.84348 9.04717,-9.84348 0.93502,0 1.08209,0.55466 1.07888,4.06903 -0.002,2.43011 -0.36642,4.76449 -0.90423,5.79569 -0.49528,0.94966 -0.89536,2.306 -0.88906,3.01409 0.009,0.97477 0.44171,0.60237 1.78308,-1.53341 2.68483,-4.27486 10.05857,-11.33361 14.87072,-14.23546 6.85399,-4.13314 18.29825,-7.6513 18.29825,-5.6252 0,2.7855 -5.16468,13.00844 -8.94739,17.71043 -3.21917,4.00148 -9.4287,10.83001 -12.33193,13.56125 -1.85025,1.74064 -3.23306,3.1648 -3.0729,3.1648 0.16015,0 1.70371,-1.0603 3.43013,-2.35623 4.14753,-3.11334 13.07287,-8.49451 14.0892,-8.49451 2.45104,0 -1.28353,7.46293 -6.45442,12.89809 -2.38506,2.50696 -5.45961,5.00381 -7.41624,6.02275 -3.39065,1.76574 -7.2779,5.19192 -5.89059,5.19192 0.41706,0 2.56165,-1.28852 4.76576,-2.86339 7.37616,-5.27037 8.45459,-5.39544 6.76945,-0.78512 -3.25129,8.89516 -10.23996,16.51646 -18.83273,20.53749 -6.49897,3.04125 -9.68434,3.67502 -20.23395,4.02584 l -9.8184,0.32649 1.03738,1.58643 c 1.3223,2.02215 2.0473,2.74203 3.59641,3.5711 1.89209,1.01261 6.42874,2.51781 7.61849,2.52771 2.25795,0.0188 0.58245,1.7817 -3.8818,4.08432 -2.90858,1.50023 -3.79672,1.65123 -9.712,1.65123 -6.29506,0 -6.46753,0.0349 -5.20788,1.05493 0.71653,0.58022 2.15436,1.05909 3.19516,1.06416 2.86392,0.014 3.7354,0.77433 2.40841,2.10131 -3.52024,3.52024 -11.2616,4.39421 -15.82358,1.78643 -1.45659,-0.83265 -2.77388,-1.38836 -2.92732,-1.23492 -0.33165,0.33165 2.14262,2.77546 3.80265,3.75583 0.88329,0.52165 1.0019,0.8673 0.48378,1.4098 -0.97212,1.01785 -11.34272,-0.69812 -14.77636,-2.44496 -3.80972,-1.93818 -9.15311,-6.19736 -11.74843,-9.36461 -2.02427,-2.47036 -2.44608,-2.71358 -4.10012,-2.36423 -1.01405,0.21417 -3.20006,0.63185 -4.85781,0.92817 -7.21917,1.2904 -19.16372,4.3165 -26.70338,6.7652 l -4.39908,1.4287 3.79626,1.72047 c 6.42085,2.90995 15.31037,7.3928 17.89333,9.02335 1.35107,0.85289 2.87833,1.55071 3.39391,1.55071 0.83208,0 3.70913,-1.53667 4.51191,-2.40987 1.22027,-1.32732 11.4691,-8.44087 12.16117,-8.44087 0.47873,0 1.3533,0.35309 1.94348,0.78465 0.98893,0.72312 0.86799,0.96176 -1.54253,3.04366 -1.43858,1.24246 -5.82365,5.42294 -9.74458,9.28997 -6.92009,6.82493 -7.17068,7.00511 -8.55235,6.14932 -0.78285,-0.48489 -4.35653,-2.76053 -7.9415,-5.05697 -8.53794,-5.46918 -21.63159,-12.04048 -23.99127,-12.04048 -2.04005,0 -12.20065,4.6855 -18.60691,8.58046 -2.27185,1.38128 -4.20981,2.51141 -4.30657,2.51141 -0.0968,0 -2.37957,1.49198 -5.0729,3.3155 -2.69332,1.82353 -5.09566,3.30188 -5.33853,3.28522 -0.24286,-0.0166 -4.71202,-4.16909 -9.93146,-9.22764 z"
         id="path96" />
      <path
         style="font-variation-settings:normal;opacity:1;vector-effect:none;fill:#ffffff;fill-opacity:1;stroke-width:0.602819;stroke-linecap:butt;stroke-linejoin:miter;stroke-miterlimit:4;stroke-dasharray:none;stroke-dashoffset:0;stroke-opacity:1;-inkscape-stroke:none;stop-color:#000000;stop-opacity:1"
         d="m 158.65176,347.63525 c -0.49893,-0.55785 -2.01065,-3.15324 -3.35936,-5.76753 -1.7687,-3.42837 -3.47975,-5.68312 -6.13873,-8.08936 -4.47362,-4.04839 -6.14095,-6.58741 -7.49511,-11.4136 -0.95468,-3.40245 -0.96061,-3.96338 -0.0787,-7.43851 1.01979,-4.0184 4.39506,-10.2012 5.56897,-10.2012 1.07638,0 3.39669,5.35449 3.72245,8.59017 0.15856,1.57486 0.50084,2.86339 0.76063,2.86339 0.25979,0 1.06043,-1.21483 1.77921,-2.69961 1.22448,-2.52944 4.17832,-5.40667 6.93875,-6.75877 0.6631,-0.3248 2.77424,-0.95203 4.69143,-1.39384 4.33974,-1.00009 5.23991,-0.38326 3.30857,2.26715 -7.06565,9.6963 -9.33988,14.04373 -10.67134,20.3994 -0.65117,3.10838 -0.62751,4.36554 0.15319,8.13806 0.50783,2.45398 1.48562,5.7728 2.17285,7.37515 0.68724,1.60235 1.24952,3.26876 1.24952,3.70312 0,1.26625 -1.61445,1.53052 -2.60234,0.42598 z"
         id="path97" />
      <path
         style="font-variation-settings:normal;opacity:1;vector-effect:none;fill:#ffffff;fill-opacity:1;stroke-width:0.602819;stroke-linecap:butt;stroke-linejoin:miter;stroke-miterlimit:4;stroke-dasharray:none;stroke-dashoffset:0;stroke-opacity:1;-inkscape-stroke:none;stop-color:#000000;stop-opacity:1"
         d="m 196.21761,367.65405 c -0.49733,-0.18914 -1.71857,-0.70727 -2.71387,-1.15141 -8.55862,-3.81916 -10.5345,-4.0735 -16.28243,-2.09593 -3.1222,1.0742 -3.65988,1.11116 -4.84715,0.33324 -1.7739,-1.16231 -4.48905,-6.70588 -4.48905,-9.16538 0,-3.42691 -1.28999,-8.14728 -3.50918,-12.84091 -2.65825,-5.62224 -3.3688,-12.88474 -1.60206,-16.37475 1.34768,-2.66221 3.82776,-5.96057 4.48182,-5.96057 0.28317,0 1.19815,1.15289 2.03328,2.56198 0.83514,1.40909 2.73899,3.899 4.2308,5.53312 3.30692,3.62242 4.59398,8.00339 4.65359,15.84014 l 0.0403,5.30149 0.85475,-2.71269 c 0.47011,-1.49198 0.85471,-3.52649 0.85465,-4.52114 -1.3e-4,-2.31609 -2.13233,-10.80689 -3.30319,-13.15395 -0.9914,-1.98729 -1.19173,-6.81328 -0.37242,-8.97129 0.28915,-0.76159 0.86001,-2.46978 1.26857,-3.79598 1.82639,-5.9285 4.83672,-10.42175 4.83672,-7.21932 0,1.90212 2.07122,6.78876 3.99074,9.41536 2.90328,3.97276 3.83806,7.11473 3.89772,13.10093 0.0444,4.45377 0.14423,4.93969 0.6966,3.39042 0.35464,-0.99465 0.67818,-4.79241 0.71898,-8.43947 0.0727,-6.50328 0.1232,-6.73146 2.6189,-11.84634 1.3996,-2.86844 2.54472,-5.66883 2.54472,-6.2231 0,-0.62811 0.39013,-0.93263 1.03557,-0.80833 2.44902,0.47164 6.20313,12.02596 5.27716,16.24191 -0.51114,2.32718 0.52422,2.21176 2.04099,-0.22753 2.76604,-4.44836 8.85606,-9.13842 14.23949,-10.96615 3.9434,-1.33881 4.35934,-0.728 2.70592,3.97373 -2.33014,6.62608 -5.34743,11.41491 -9.88534,15.68931 -2.76012,2.59984 -2.07249,3.03072 1.36927,0.85803 3.38762,-2.13851 7.1128,-3.22882 11.84242,-3.46613 4.97511,-0.24963 5.43727,0.37516 3.31681,4.48389 -2.7526,5.33359 -5.21878,6.78504 -12.90073,7.59266 l -4.87531,0.51256 3.91832,0.11142 c 4.42413,0.1258 12.86101,2.90049 13.1153,4.3133 0.1952,1.0845 -5.24846,4.84747 -9.11943,6.30388 -2.65156,0.99761 -3.49989,1.03511 -8.74088,0.38636 -6.34904,-0.7859 -10.05024,-0.8503 -11.68505,-0.20333 -0.582,0.23033 1.18125,0.41915 3.91832,0.41961 3.90217,6.5e-4 5.58751,0.29151 7.80682,1.34731 2.03606,0.96863 3.93918,1.34649 6.78172,1.34649 2.17326,0 3.95139,0.23945 3.95139,0.53212 0,1.06685 -6.43773,6.14143 -10.54153,8.30942 -3.58935,1.89623 -4.88135,2.25201 -8.74087,2.40701 -2.49092,0.10004 -4.93585,0.0271 -5.43318,-0.16199 z m -0.75352,-13.31056 c -0.58022,-0.15163 -1.52966,-0.15163 -2.10987,0 -0.58021,0.15163 -0.10549,0.27568 1.05493,0.27568 1.16043,0 1.63515,-0.12405 1.05494,-0.27568 z m 14.17772,-10.83062 c -0.40813,-0.16512 -1.22194,-0.17517 -1.80846,-0.0223 -0.58652,0.15284 -0.2526,0.28794 0.74205,0.30023 0.99465,0.0123 1.47454,-0.11277 1.06641,-0.2779 z"
         id="path98" />
      <path
         style="font-variation-settings:normal;opacity:1;vector-effect:none;fill:#ffffff;fill-opacity:1;stroke-width:0.602819;stroke-linecap:butt;stroke-linejoin:miter;stroke-miterlimit:4;stroke-dasharray:none;stroke-dashoffset:0;stroke-opacity:1;-inkscape-stroke:none;stop-color:#000000;stop-opacity:1"
         d="m 267.35026,366.61373 c -4.99564,-2.13594 -12.6592,-7.65406 -12.6592,-9.11522 0,-0.53987 1.42207,-0.86921 4.67185,-1.08195 2.89359,-0.18943 5.47493,-0.73518 6.78171,-1.4338 1.56729,-0.83789 3.32779,-1.12014 6.84587,-1.09757 2.60481,0.0167 4.23242,-0.16767 3.61692,-0.40974 -1.69938,-0.66837 -5.82895,-0.60195 -11.77218,0.18934 -4.79835,0.63885 -5.69604,0.59818 -8.50779,-0.38545 -3.08486,-1.07917 -9.47303,-5.31744 -9.47303,-6.28494 0,-1.32862 9.09157,-4.2532 13.56343,-4.36308 3.54331,-0.0871 3.51343,-0.0997 -1.46849,-0.62004 -6.22172,-0.64984 -9.59279,-2.40701 -11.71491,-6.10637 -1.91806,-3.34365 -2.481,-5.30812 -1.66552,-5.81211 0.3586,-0.22163 2.91556,-0.20449 5.68213,0.0381 4.04084,0.35429 5.8519,0.86273 9.20834,2.58513 2.298,1.17926 4.32549,2.14543 4.50553,2.14705 0.18003,0.002 -1.31194,-1.69249 -3.31551,-3.76468 -3.93154,-4.06621 -6.19281,-7.80965 -8.41003,-13.92249 -1.62422,-4.47795 -1.385,-5.42808 1.18109,-4.69105 5.58895,1.60524 13.16677,7.17704 15.78189,11.60408 0.56362,0.95414 1.19739,1.73479 1.40838,1.73479 0.21099,0 0.54298,-2.3736 0.73775,-5.27466 0.28118,-4.18803 0.73326,-6.05084 2.19444,-9.04229 1.04625,-2.14196 2.23248,-3.76762 2.74919,-3.76762 0.49989,0 0.90889,0.29911 0.90889,0.6647 0,0.36558 1.13001,3.01045 2.51114,5.87748 2.4281,5.04039 2.5159,5.4321 2.65486,11.8438 0.17343,8.00243 1.32915,12.89855 1.41319,5.9869 0.0645,-5.30626 1.35948,-9.77892 3.88676,-13.42446 2.38959,-3.44694 3.15275,-5.05589 4.02859,-8.49345 l 0.68003,-2.66899 1.19544,1.88808 c 2.27274,3.58954 4.72865,11.6561 4.72865,15.53147 0,2.00861 -0.23521,3.90972 -0.52269,4.22469 -1.95606,2.14311 -3.57424,12.11624 -2.74873,16.94086 0.48874,2.85631 0.5085,2.80002 0.87905,-2.50334 0.60446,-8.65111 1.41599,-11.07578 5.17125,-15.45048 1.81282,-2.11185 3.67859,-4.72136 4.14615,-5.7989 1.03551,-2.38644 1.45737,-2.42338 3.44271,-0.30141 2.81319,3.0068 3.70459,5.51771 3.69164,10.39863 -0.0106,3.98707 -0.30251,5.16203 -2.47137,9.94652 -1.73468,3.8267 -2.66185,6.91753 -3.14652,10.48928 -0.84396,6.21958 -2.01249,9.26073 -4.29693,11.18296 -1.71365,1.44194 -1.81173,1.4535 -4.6055,0.54304 -1.57001,-0.51165 -4.3649,-1.06904 -6.21087,-1.23865 -2.98399,-0.27417 -3.88675,-0.0546 -8.13806,1.97905 -6.30092,3.01415 -12.04437,3.43531 -17.13954,1.25681 z m 14.9268,-12.26889 c -0.57634,-0.15088 -1.66142,-0.15635 -2.41127,-0.0122 -0.74986,0.14419 -0.2783,0.26764 1.0479,0.27433 1.3262,0.007 1.93972,-0.11129 1.36337,-0.26217 z m -14.77609,-10.83579 c -0.41444,-0.16723 -1.09261,-0.16723 -1.50705,0 -0.41444,0.16723 -0.0754,0.30405 0.75352,0.30405 0.82888,0 1.16796,-0.13682 0.75353,-0.30405 z"
         id="path99" />
      <path
         style="font-variation-settings:normal;opacity:1;vector-effect:none;fill:#ffffff;fill-opacity:1;stroke-width:0.602819;stroke-linecap:butt;stroke-linejoin:miter;stroke-miterlimit:4;stroke-dasharray:none;stroke-dashoffset:0;stroke-opacity:1;-inkscape-stroke:none;stop-color:#000000;stop-opacity:1"
         d="m 315.62374,348.15766 c -0.96271,-0.595 -0.70223,-2.04686 1.19503,-6.66065 1.10087,-2.67713 1.37362,-4.53423 1.41654,-9.64511 l 0.0532,-6.3296 -2.83418,-5.78981 c -1.5588,-3.1844 -4.23095,-7.46143 -5.9381,-9.50451 -4.43694,-5.31001 -3.70612,-6.43115 2.95272,-4.52969 5.17982,1.47912 7.98465,3.80676 10.76558,8.93404 1.18152,2.1784 1.33285,2.28316 1.36287,0.94346 0.0698,-3.1171 3.03657,-10.85074 4.1625,-10.85074 0.84284,0 2.32346,1.9708 4.07593,5.42537 1.4184,2.79604 1.68559,4.07828 1.70536,8.18399 0.0314,6.51333 -1.79266,10.23069 -7.52653,15.33907 -3.29345,2.93419 -4.59926,4.65607 -6.61154,8.71818 -2.75472,5.56088 -3.55298,6.52393 -4.77934,5.766 z"
         id="path100" />
      <path
         style="font-variation-settings:normal;opacity:1;vector-effect:none;fill:#ffffff;fill-opacity:1;stroke-width:0.602819;stroke-linecap:butt;stroke-linejoin:miter;stroke-miterlimit:4;stroke-dasharray:none;stroke-dashoffset:0;stroke-opacity:1;-inkscape-stroke:none;stop-color:#000000;stop-opacity:1"
         d="m 337.70818,317.54296 c 0.50808,-5.58545 -0.94473,-9.59067 -5.11117,-14.09093 -4.73763,-5.1172 -6.56138,-6.09076 -17.32263,-9.24719 -3.41977,-1.00307 -12.45188,-6.40291 -14.16737,-8.46994 -1.00574,-1.21185 -0.26284,-2.02256 2.84515,-3.10487 4.46269,-1.55407 12.1763,-0.7045 18.15289,1.99935 1.10446,0.49966 2.14564,0.77096 2.31372,0.60288 0.16808,-0.16808 -0.40887,-1.52474 -1.28211,-3.01481 -0.87324,-1.49007 -1.86321,-3.61369 -2.19994,-4.71917 -1.48455,-4.87375 -2.25144,-8.29637 -2.64525,-11.80577 l -0.42278,-3.76762 h 1.72771 c 0.95024,0 2.80794,0.71541 4.12822,1.58979 7.28898,4.82729 12.308,12.32224 16.99787,25.38306 l 1.67875,4.67515 0.17938,-6.63101 c 0.0987,-3.64705 -0.1196,-8.36588 -0.48502,-10.48628 -0.42911,-2.48992 -0.45738,-4.0623 -0.0798,-4.43984 1.02831,-1.0283 6.01727,1.36146 8.22378,3.93927 2.92103,3.41257 3.91668,6.87062 3.91668,13.60324 0,8.15821 -1.18508,11.52902 -5.49641,15.63388 -2.48843,2.36926 -3.64789,4.03275 -4.37063,6.27059 -0.54104,1.67522 -0.9837,3.40858 -0.9837,3.8519 0,0.44333 -1.19702,1.62961 -2.66003,2.63619 -1.46302,1.00659 -2.79935,2.17251 -2.96964,2.59095 -0.17029,0.41843 -0.15572,-0.93104 0.0324,-2.99882 z"
         id="path101" />
      <path
         style="font-variation-settings:normal;opacity:1;vector-effect:none;fill:#ffffff;fill-opacity:1;stroke-width:0.602819;stroke-linecap:butt;stroke-linejoin:miter;stroke-miterlimit:4;stroke-dasharray:none;stroke-dashoffset:0;stroke-opacity:1;-inkscape-stroke:none;stop-color:#000000;stop-opacity:1"
         d="m 347.57222,316.23511 -1.46002,-1.12233 3.32534,-4.00623 c 1.82893,-2.20343 4.24317,-5.82919 5.36497,-8.05726 l 2.03964,-4.05103 0.40729,-11.75497 c 0.44307,-12.78776 1.03274,-15.59887 4.26959,-20.35439 0.96256,-1.41418 2.41374,-3.00606 3.22485,-3.53752 1.88447,-1.23475 2.62949,-0.65266 4.77351,3.72955 1.33237,2.72328 1.61035,4.10822 1.59807,7.96193 -0.008,2.56585 -0.43355,6.02154 -0.94529,7.67929 -0.51174,1.65775 -0.90974,4.09917 -0.88446,5.42537 0.0412,2.16317 0.18699,1.91506 1.41646,-2.41128 2.9559,-10.40143 5.963,-15.63013 12.43342,-21.61907 5.89844,-5.4595 15.46152,-12.61501 16.22714,-12.14183 0.34135,0.21096 0.60773,2.9578 0.60773,6.26669 0,7.05963 -1.40974,12.19819 -4.76925,17.38416 -2.6469,4.08593 -10.32476,11.90753 -15.3408,15.62799 -2.69123,1.99612 -3.22247,2.62012 -2.23064,2.62012 2.02069,0 4.54062,-1.54176 8.73989,-5.34731 4.26226,-3.86263 9.87344,-7.11177 11.32192,-6.55593 2.3738,0.91091 -1.9018,11.77584 -6.39645,16.25434 -4.28702,4.27163 -11.1524,7.24605 -20.5614,8.90823 -8.95514,1.58199 -8.81009,1.52181 -16.3505,6.78441 -2.73157,1.90641 -5.053,3.46017 -5.15873,3.4528 -0.10574,-0.007 -0.84926,-0.51845 -1.65228,-1.13573 z"
         id="path102" />
      <path
         style="font-variation-settings:normal;opacity:1;vector-effect:none;fill:#ffffff;fill-opacity:1;stroke-width:0.602819;stroke-linecap:butt;stroke-linejoin:miter;stroke-miterlimit:4;stroke-dasharray:none;stroke-dashoffset:0;stroke-opacity:1;-inkscape-stroke:none;stop-color:#000000;stop-opacity:1"
         d="m 373.17644,267.19956 c -0.12768,-0.41444 -0.38454,-1.45544 -0.5708,-2.31333 -0.47517,-2.18855 -2.64612,-4.7698 -4.01163,-4.7698 -4.59256,0 -5.24277,-17.50009 -1.05829,-28.4832 0.34738,-0.91176 0.96038,-1.65775 1.36222,-1.65775 1.0519,0 4.99532,4.09566 5.89041,6.1178 0.41846,0.94536 0.92295,1.71885 1.12108,1.71885 0.19814,0 0.68697,-1.15289 1.0863,-2.56198 0.91008,-3.21133 1.24896,-4.02535 3.75941,-9.03029 2.55083,-5.08546 9.46072,-14.93177 10.47874,-14.93177 1.14561,0 2.50222,3.40672 3.24071,8.13806 0.54528,3.49345 0.47396,5.2832 -0.41435,10.39862 -0.59014,3.3984 -0.93884,6.1789 -0.77488,6.1789 0.16396,0 1.18152,-0.85625 2.26126,-1.90277 1.70237,-1.65 2.09394,-1.79424 2.9476,-1.08576 0.80324,0.66663 0.94648,1.76579 0.77822,5.9718 -0.17098,4.27413 -0.51517,5.76905 -2.01467,8.7503 -1.61071,3.20237 -2.21427,3.79956 -5.51986,5.46169 -4.34815,2.18635 -11.2598,7.68865 -14.85415,11.82526 -2.64048,3.03883 -3.31871,3.4368 -3.70732,2.17537 z"
         id="path103" />
      <path
         style="font-variation-settings:normal;opacity:1;vector-effect:none;fill:#ffffff;fill-opacity:1;stroke-width:0.602819;stroke-linecap:butt;stroke-linejoin:miter;stroke-miterlimit:4;stroke-dasharray:none;stroke-dashoffset:0;stroke-opacity:1;-inkscape-stroke:none;stop-color:#000000;stop-opacity:1"
         d="m 351.05422,273.67766 c -1.87187,-2.65119 -4.72019,-6.07725 -6.3296,-7.61345 -2.99682,-2.86051 -7.98176,-5.94778 -9.60374,-5.94778 -2.33586,0 -8.59222,-3.73517 -11.79075,-7.03932 -3.94386,-4.07408 -8.35716,-10.86212 -8.35716,-12.85402 0,-1.31676 0.15182,-1.36113 3.46621,-1.0131 3.34354,0.35109 8.41492,2.45676 12.6302,5.24413 l 1.93017,1.27633 -3.69075,-7.42537 c -2.02992,-4.08395 -3.95179,-8.01743 -4.27084,-8.74105 -0.77202,-1.751 -0.10666,-3.36644 1.2349,-2.99826 0.58184,0.15969 2.05777,0.45869 3.27983,0.66445 5.05402,0.85096 13.28328,8.50876 15.54969,14.46987 0.84535,2.22345 1.32195,1.64852 1.84916,-2.23071 0.61472,-4.52304 2.05629,-7.68544 3.50341,-7.68544 0.65054,0 1.89495,0.84632 2.76533,1.88072 3.5734,4.24674 4.9314,8.42662 6.17955,19.02055 l 1.00658,8.54348 -1.58548,2.39582 c -1.7977,2.7165 -3.13308,6.71179 -3.86389,11.5602 l -0.49942,3.3133 z"
         id="path104" />
      <path
         style="font-variation-settings:normal;opacity:1;vector-effect:none;fill:#ffffff;fill-opacity:1;stroke-width:0.602819;stroke-linecap:butt;stroke-linejoin:miter;stroke-miterlimit:4;stroke-dasharray:none;stroke-dashoffset:0;stroke-opacity:1;-inkscape-stroke:none;stop-color:#000000;stop-opacity:1"
         d="m 331.11913,220.95046 c -14.06274,-3.75007 -21.08726,-12.5834 -25.18114,-31.66527 -3.76757,-17.56096 -9.87123,-33.06046 -15.09358,-38.32835 -4.22941,-4.26628 -8.02413,-4.44344 -12.10127,-0.56494 -2.089,1.98722 -2.35059,2.55496 -2.35059,5.10169 0,4.67224 2.78584,9.33015 9.25797,15.47925 3.42119,3.25044 3.01649,3.99071 -1.60064,2.92787 -5.89906,-1.35792 -11.8682,-4.68147 -16.11301,-8.97154 -12.1427,-12.27212 -10.83342,-27.08433 3.08354,-34.88479 10.89859,-6.10866 26.69098,-0.43175 46.66525,16.77483 4.97829,4.28849 15.00849,14.28671 20.22617,20.16168 7.21265,8.12124 17.24533,22.65335 20.60063,29.83954 2.84621,6.09584 3.19321,8.02926 2.06692,11.51661 -0.54879,1.69922 -0.9978,4.50197 -0.9978,6.22832 v 3.13883 l -2.86339,1.27856 c -7.14626,3.19095 -17.90943,4.01828 -25.59906,1.96771 z"
         id="path105" />
      <path
         style="font-variation-settings:normal;opacity:1;vector-effect:none;fill:#ffffff;fill-opacity:1;stroke-width:0.602819;stroke-linecap:butt;stroke-linejoin:miter;stroke-miterlimit:4;stroke-dasharray:none;stroke-dashoffset:0;stroke-opacity:1;-inkscape-stroke:none;stop-color:#000000;stop-opacity:1"
         d="m 380.71303,206.54468 c -0.39397,-0.95113 -1.66338,-2.64656 -2.8209,-3.76762 -2.00027,-1.93726 -2.32262,-2.03831 -6.50222,-2.03831 h -4.3976 l -4.71985,-7.23383 c -15.36143,-23.54356 -31.80955,-41.82787 -50.8657,-56.54412 -11.56447,-8.93073 -15.73673,-14.36896 -15.71492,-20.4832 0.0131,-3.67388 2.43739,-9.80218 5.15551,-13.03248 3.56347,-4.234943 12.80188,-6.475591 20.28611,-4.920115 12.97658,2.696965 22.59038,15.046705 21.15406,27.174155 -0.19559,1.65149 -0.58077,3.00271 -0.85595,3.00271 -0.27519,0 -1.42575,-1.42416 -2.55681,-3.1648 -1.13106,-1.74064 -3.26874,-4.33413 -4.75041,-5.76331 -2.30992,-2.2281 -3.06757,-2.60367 -5.31502,-2.63469 -2.20033,-0.0304 -2.89225,0.26733 -4.3104,1.8545 -2.36585,2.64785 -2.19675,4.58971 0.63419,7.28272 2.64535,2.51646 6.3463,4.3913 17.13849,8.68209 2.91266,1.15802 6.64668,2.93673 8.29782,3.95268 1.65114,1.01596 3.16627,1.8472 3.36696,1.8472 0.20068,0 3.21456,2.07674 6.69752,4.61499 6.55788,4.77913 14.92324,12.58801 17.98122,16.78508 0.96626,1.3262 1.89656,2.54691 2.06733,2.71269 0.52363,0.50833 3.6147,5.38038 3.6147,5.69737 0,0.16383 0.66178,1.72944 1.47062,3.47914 2.45505,5.3108 3.35194,9.38799 3.35194,15.23766 0,6.05433 -0.98484,10.23695 -3.45011,14.65266 -2.68175,4.80347 -3.80254,5.39293 -4.95658,2.60683 z"
         id="path106" />
      <path
         style="font-variation-settings:normal;opacity:1;vector-effect:none;fill:#ffffff;fill-opacity:1;stroke-width:0.602819;stroke-linecap:butt;stroke-linejoin:miter;stroke-miterlimit:4;stroke-dasharray:none;stroke-dashoffset:0;stroke-opacity:1;-inkscape-stroke:none;stop-color:#000000;stop-opacity:1"
         d="m 370.73373,223.64242 c -7.51685,-8.50123 -9.65491,-17.16811 -4.81647,-19.52416 4.5479,-2.21457 10.16505,-1.18957 11.67798,2.13097 0.86092,1.88951 0.86909,8.99283 0.0146,12.71615 -0.88311,3.84812 -2.45311,7.04084 -3.56063,7.24081 -0.49733,0.0898 -1.9893,-1.0639 -3.31551,-2.56377 z"
         id="path107" />
      <path
         style="font-variation-settings:normal;opacity:1;vector-effect:none;fill:#ffffff;fill-opacity:1;stroke-width:0.602819;stroke-linecap:butt;stroke-linejoin:miter;stroke-miterlimit:4;stroke-dasharray:none;stroke-dashoffset:0;stroke-opacity:1;-inkscape-stroke:none;stop-color:#000000;stop-opacity:1"
         d="m 289.05175,125.66398 c -0.82888,-0.2741 -3.27029,-0.95888 -5.42537,-1.52173 -20.11237,-5.25286 -34.60998,-14.20787 -39.79276,-24.579533 -1.82962,-3.6614 -2.4391,-8.373394 -1.18344,-9.149433 2.42914,-1.501292 11.55965,-0.784451 17.46625,1.371284 8.34704,3.04642 17.61484,10.327302 25.90208,20.348932 2.00792,2.42815 9.06143,13.07366 9.06143,13.67597 0,0.60993 -4.03855,0.51246 -6.02819,-0.14549 z"
         id="path108" />
      <path
         style="font-variation-settings:normal;opacity:1;vector-effect:none;fill:#ffffff;fill-opacity:1;stroke-width:0.602819;stroke-linecap:butt;stroke-linejoin:miter;stroke-miterlimit:4;stroke-dasharray:none;stroke-dashoffset:0;stroke-opacity:1;-inkscape-stroke:none;stop-color:#000000;stop-opacity:1"
         d="m 185.76875,203.04956 c -0.22104,-0.22103 -0.40188,-5.51077 -0.40188,-11.75497 V 179.9415 h 23.78697 23.78698 l 0.17508,-4.97326 0.17508,-4.97326 h 4.82256 4.82255 l 0.17508,4.97326 0.17509,4.97326 h 23.42977 23.42978 l 0.20799,3.46621 c 0.1144,1.90641 0.10843,7.207 -0.0133,11.77908 l -0.22127,8.31288 -4.60278,-0.17482 -4.60278,-0.17482 -0.17045,-6.78171 -0.17044,-6.78172 h -10.81126 -10.81126 l -0.17045,6.78172 -0.17044,6.78171 h -4.82256 -4.82255 l -0.17045,-6.78171 -0.17044,-6.78172 h -10.81126 -10.81126 l -0.17045,6.78172 -0.17045,6.78171 h -4.52114 -4.52114 l -0.30141,-6.63101 -0.30141,-6.63101 -11.00145,-0.1643 -11.00145,-0.16431 v 6.94602 6.94602 h -4.42067 c -2.43137,0 -4.60152,-0.18085 -4.82255,-0.40188 z"
         id="path109" />
      <path
         style="font-variation-settings:normal;opacity:1;vector-effect:none;fill:#ffffff;fill-opacity:1;stroke-width:0.602819;stroke-linecap:butt;stroke-linejoin:miter;stroke-miterlimit:4;stroke-dasharray:none;stroke-dashoffset:0;stroke-opacity:1;-inkscape-stroke:none;stop-color:#000000;stop-opacity:1"
         d="m 220.93319,245.68435 c 0,-3.83964 0.10645,-3.99418 3.7811,-5.48894 l 2.29173,-0.93223 -3.03641,-1.32584 -3.03642,-1.32583 v -7.24926 c 0,-7.17337 0.0158,-7.25544 1.50705,-7.83916 0.82888,-0.32444 2.25304,-0.89274 3.1648,-1.26288 l 1.65775,-0.67299 -3.1648,-1.2162 -3.1648,-1.2162 v -3.43572 c 0,-1.88964 0.1587,-3.59441 0.35266,-3.78837 0.33834,-0.33834 2.83297,0.29307 5.37412,1.36023 0.66311,0.27847 2.56199,0.96297 4.21974,1.52112 1.65775,0.55815 3.55663,1.24034 4.21973,1.51598 3.36991,1.40082 2.80676,1.526 18.04195,-4.01045 2.88182,-1.04725 3.33554,-0.57865 3.3489,3.45865 0.0104,3.14864 -0.41453,3.65085 -4.14582,4.89964 l -2.64799,0.88624 2.82713,1.07969 c 1.55492,0.59383 3.07198,1.5372 3.37124,2.09637 0.579,1.08187 0.72815,10.03702 0.21341,12.81336 -0.16905,0.91176 -0.52394,1.65775 -0.78866,1.65775 -0.26472,0 -1.5212,0.43449 -2.79218,0.96554 l -2.31088,0.96555 1.48374,0.82155 c 0.81605,0.45185 1.94891,0.83116 2.51746,0.84291 1.38987,0.0287 2.28376,1.85917 2.27255,4.65358 -0.0159,3.96626 -0.48816,4.17623 -5.34936,2.37842 -14.07902,-5.20679 -12.60088,-4.83203 -15.03319,-3.81148 -1.21767,0.51091 -4.24845,1.65528 -6.73508,2.54306 -2.48663,0.88777 -4.99218,1.85783 -5.5679,2.15569 -2.38279,1.23278 -2.87157,0.71538 -2.87157,-3.03978 z m 26.6579,-13.65142 c 3.5549,-1.28275 6.26759,-2.52051 6.02819,-2.75058 -0.40954,-0.39359 -5.89078,-2.42147 -12.34847,-4.56854 -2.47402,-0.82257 -3.22406,-0.84318 -5.42537,-0.14912 -1.40495,0.44297 -2.82572,0.99041 -3.15728,1.21652 -0.33155,0.22611 -1.32363,0.583 -2.20463,0.79309 -0.881,0.21009 -2.91552,0.9506 -4.52115,1.64558 l -2.91932,1.26361 3.3155,1.19625 c 1.82353,0.65794 3.72241,1.35496 4.21974,1.54894 0.49732,0.19399 2.12494,0.82653 3.61691,1.40565 3.62934,1.40876 5.7595,1.15411 13.39588,-1.6014 z"
         id="path110" />
      <path
         style="font-variation-settings:normal;opacity:1;vector-effect:none;fill:#ffffff;fill-opacity:1;stroke-width:0.602819;stroke-linecap:butt;stroke-linejoin:miter;stroke-miterlimit:4;stroke-dasharray:none;stroke-dashoffset:0;stroke-opacity:1;-inkscape-stroke:none;stop-color:#000000;stop-opacity:1"
         d="m 185.77939,248.87446 c -0.22689,-0.22689 -0.41252,-9.26493 -0.41252,-20.08453 0,-14.49668 0.1903,-19.8623 0.72338,-20.39537 0.78705,-0.78706 6.9778,-0.98284 8.11916,-0.25677 0.38746,0.24648 0.79437,1.39522 0.90423,2.55275 l 0.19974,2.1046 9.31824,0.16708 c 6.52873,0.11706 9.45844,0.38775 9.78658,0.90422 0.25759,0.40544 0.46834,2.22913 0.46834,4.05266 0,1.82353 -0.21075,3.64722 -0.46834,4.05265 -0.32814,0.51648 -3.25785,0.78717 -9.78658,0.90423 l -9.31824,0.16708 v 1.50705 1.50705 l 9.00069,0.16744 c 5.38299,0.10014 9.32028,0.43268 9.79581,0.82734 0.86905,0.72124 1.10306,6.93095 0.30832,8.18183 -0.32814,0.51648 -3.25785,0.78717 -9.78658,0.90423 l -9.31824,0.16708 -0.19074,1.65775 -0.19075,1.65775 h 9.30993 c 7.28434,0 9.46369,0.18529 10.01668,0.8516 0.42506,0.51217 0.63469,2.37426 0.52593,4.67185 l -0.18084,3.82025 -14.20583,0.16135 c -7.81321,0.0888 -14.39148,-0.0243 -14.61837,-0.25117 z"
         id="path111" />
      <path
         style="font-variation-settings:normal;opacity:1;vector-effect:none;fill:#ffffff;fill-opacity:1;stroke-width:0.602819;stroke-linecap:butt;stroke-linejoin:miter;stroke-miterlimit:4;stroke-dasharray:none;stroke-dashoffset:0;stroke-opacity:1;-inkscape-stroke:none;stop-color:#000000;stop-opacity:1"
         d="m 261.57353,248.44867 c -0.17243,-0.44936 -0.23174,-2.55169 -0.13178,-4.67185 l 0.18173,-3.85483 9.4944,-0.16601 9.4944,-0.16601 v -1.79315 -1.79315 h -9.67046 -9.67046 l 0.17606,-4.67185 0.17606,-4.67185 9.4944,-0.16601 9.4944,-0.16601 v -1.77784 -1.77785 l -9.4944,-0.16601 -9.4944,-0.16601 v -4.52114 -4.52115 l 9.4944,-0.16601 9.4944,-0.16601 v -2.02075 c 0,-2.8407 1.05945,-3.46474 5.52345,-3.25343 l 3.82025,0.18083 0.15862,20.64656 0.15861,20.64655 h -14.19308 c -11.38663,0 -14.25507,-0.16155 -14.5066,-0.81702 z"
         id="path112" />
      <path
         style="font-variation-settings:normal;opacity:1;vector-effect:none;fill:#ffffff;fill-opacity:1;stroke-width:0.602819;stroke-linecap:butt;stroke-linejoin:miter;stroke-miterlimit:4;stroke-dasharray:none;stroke-dashoffset:0;stroke-opacity:1;-inkscape-stroke:none;stop-color:#000000;stop-opacity:1"
         d="m 185.76875,295.28088 c -0.57457,-0.57457 -0.4809,-40.73769 0.0971,-41.64814 0.38075,-0.59971 11.2401,-0.72491 52.28533,-0.60282 l 51.80477,0.15409 0.15844,21.27487 0.15845,21.27487 -4.67959,-0.1762 -4.67959,-0.1762 -0.16055,-16.12541 -0.16055,-16.12541 h -42.79031 -42.79031 v 16.27611 16.27612 h -4.42067 c -2.43137,0 -4.60152,-0.18085 -4.82255,-0.40188 z"
         id="path113" />
      <path
         style="font-variation-settings:normal;opacity:1;vector-effect:none;fill:#ffffff;fill-opacity:1;stroke-width:0.602819;stroke-linecap:butt;stroke-linejoin:miter;stroke-miterlimit:4;stroke-dasharray:none;stroke-dashoffset:0;stroke-opacity:1;-inkscape-stroke:none;stop-color:#000000;stop-opacity:1"
         d="m 220.57681,307.51184 c -0.1752,-0.45656 -0.23451,-2.15199 -0.13179,-3.76762 l 0.18676,-2.9375 6.63101,-0.30141 c 6.59082,-0.29958 6.63101,-0.31054 6.63101,-1.80846 v -1.50704 l -15.9747,-0.30141 -15.97471,-0.30141 v -15.07048 -15.07048 h 3.61692 3.61691 l 0.30141,11.15216 0.30141,11.15215 h 12.05638 c 11.6545,0 12.05638,-0.0402 12.05638,-1.20564 0,-1.14541 -0.45728,-1.21394 -9.15451,-1.37184 l -9.15451,-0.16619 -0.18919,-6.46482 c -0.10405,-3.55564 -0.0535,-7.95678 0.11223,-9.78031 l 0.30141,-3.31551 22.14026,-0.15811 22.14025,-0.15812 0.33737,1.36375 c 0.18555,0.75007 0.25938,5.16152 0.16405,9.80323 l -0.17332,8.43946 -9.19299,0.16641 -9.19299,0.16641 v 1.50382 1.50383 l 12.20709,-0.16318 12.20708,-0.16319 0.30141,-11.15215 0.30141,-11.15216 3.25845,-0.18545 c 2.19863,-0.12514 3.42106,0.0709 3.75839,0.60282 0.63522,1.00158 0.66123,28.26402 0.0279,29.26105 -0.34979,0.55069 -4.52279,0.78482 -16.11618,0.90423 l -15.64416,0.16113 -0.17333,5.57607 -0.17332,5.57608 h -10.54563 c -8.39937,0 -10.61047,-0.16895 -10.86418,-0.83012 z m 32.30579,-31.4207 v -2.10987 h -14.76906 -14.76907 v 2.10987 2.10987 h 14.76907 14.76906 z"
         id="path114" />
      <path
         style="font-variation-settings:normal;opacity:1;vector-effect:none;fill:#ffffff;fill-opacity:1;stroke-width:0.602819;stroke-linecap:butt;stroke-linejoin:miter;stroke-miterlimit:4;stroke-dasharray:none;stroke-dashoffset:0;stroke-opacity:1;-inkscape-stroke:none;stop-color:#000000;stop-opacity:1"
         d="m 316.17861,280.88252 c -1.49198,-0.47012 -3.87859,-0.85887 -5.30358,-0.86391 -2.96729,-0.0105 -4.14046,-1.04418 -7.70154,-6.78598 -2.50206,-4.03427 -3.49411,-6.91316 -2.49679,-7.2456 0.90885,-0.30296 8.06678,1.03681 10.67935,1.99888 4.02054,1.48054 5.94557,3.13322 6.3365,5.44002 0.42589,2.51308 1.6964,6.3779 2.29266,6.97416 0.66375,0.66375 0.47657,1.42123 -0.34039,1.3775 -0.41444,-0.0222 -1.97424,-0.42496 -3.46621,-0.89507 z"
         id="path115" />
    </g>
  </g>
</svg>
